<svg width="630" height="1074" viewBox="0 0 630 1074" fill="none" xmlns="http://www.w3.org/2000/svg">
<g clip-path="url(#clip0_2301_376)">
<path d="M434.64 229.83C432.47 234.41 432.23 237.81 437.26 241.55C443.04 245.85 443.21 253.02 442.36 259.89C441.7 265.15 441.34 270.46 440.43 275.68C440.07 277.75 438.73 279.73 437.55 281.57C436.37 283.41 434.85 285.02 432.62 287.79C433.58 284.23 434.33 281.61 434.99 278.96C435.18 278.19 435.43 277.22 435.13 276.59C433.87 273.89 432.41 271.27 430.79 268.17C430.32 269.04 429.36 270.01 429.29 271.05C428.81 278.13 428.47 285.22 428.18 292.32C428.13 293.59 428.23 295.07 428.85 296.11C429.22 296.73 430.72 296.67 432.25 297.04C432.25 296.71 432.6 297.83 432.2 298.49C426.17 308.5 428.87 319.12 430.11 329.55C431.06 337.55 433.29 345.42 433.91 353.42C434.67 363.25 430.79 364.29 423.37 368.2C420.73 369.59 419.02 370.29 418.24 373.68C416.26 382.3 413.53 390.76 410.84 399.2C408.25 407.32 404.87 415.2 402.67 423.41C400.36 432.03 399.27 440.97 397.13 449.65C396.56 451.97 393.97 453.75 392.54 455.93C391.05 458.21 389.83 460.68 388.5 463.07C389.19 463.49 389.87 463.92 390.56 464.34C392.62 461.41 394.68 458.48 396.74 455.55C399.22 458.79 398.28 461.92 393.38 466.36C396.58 470.06 394.53 472.73 391.24 474.59C387.91 476.48 387.08 479.27 386.52 482.76C384.67 494.28 382.61 505.77 380.41 517.23C379.43 522.34 377.88 527.33 376.75 532.41C376.52 533.45 377.1 534.65 377.21 535.79C377.6 539.87 378.73 544.06 375.22 547.52C374.67 548.06 374.15 548.97 374.17 549.69C374.48 565.21 370.66 580.78 375.08 596.32C375.93 599.3 375.34 604.17 373.38 606.15C369.07 610.51 369.41 615.33 369.59 620.41C369.83 626.99 370.24 633.57 370.59 640.15C370.66 641.45 370.76 642.74 370.83 643.79C375.72 645.66 380.28 647.4 385.79 649.51C384.79 646.25 384.16 644.22 383.54 642.18C385.47 642.33 387.39 642.47 388.98 642.59C391.05 639.72 393.06 636.9 395.12 634.12C395.39 633.75 396.09 633.27 396.34 633.38C401.98 635.95 403.8 630.56 407.33 628.48C411.04 626.29 415.48 625.29 419.64 623.92C423.86 622.53 428.23 621.59 432.36 619.99C437.31 618.07 441.83 620.4 446.54 620.63C453.24 620.95 454.84 628.41 460.54 629.8L460.44 628.37C462.5 628.08 464.56 627.54 466.62 627.55C473.63 627.56 480.66 627.53 487.66 627.96C493.73 628.34 499.76 629.25 505.78 630.16C506.48 630.27 506.95 631.84 507.64 632.9C515.3 627.53 523.02 632.11 530.6 632.64C532.4 632.77 533.89 636.44 535.65 638.35C537.41 640.26 539.14 642.31 541.24 643.78C549.79 649.72 556.36 657.4 561.68 666.25C562.28 667.24 562.74 668.62 563.64 669.08C571.13 672.88 573.07 680.8 577.12 687.12C578.12 688.68 578.04 690.91 578.61 692.78C579.22 694.8 579.83 696.86 580.76 698.75C582.34 701.94 584.17 705 586.65 709.48C591.62 710.65 592.47 717.26 593.87 722.28C595.78 729.15 596.72 736.46 595.57 743.91C595.18 746.45 597.97 749.38 598.94 752.26C599.67 754.43 599.92 756.78 600.19 759.08C600.3 760.01 599.42 761.23 599.78 761.92C603.74 769.7 601.82 778.23 602.9 786.36C603.28 789.23 601.71 792.41 600.82 795.38C599.42 800.1 600.73 802.45 605.56 801.97C610.39 801.49 610.94 803.91 611.6 807.67C612.27 811.48 614.06 815.08 615.16 818.83C616.73 824.21 618.55 829.57 615.9 835.22C615.09 836.94 614.67 838.98 614.62 840.89C614.46 846.3 614.32 851.73 614.64 857.12C615.4 869.98 616.72 882.8 617.25 895.66C617.57 903.41 616.67 911.2 616.66 918.97C616.66 925.38 617.27 931.79 617.36 938.2C617.4 940.97 616.51 943.76 616.56 946.53C616.68 953.47 616.47 960.51 617.6 967.31C618.29 971.47 621.65 975.11 623.04 979.24C624.96 984.96 626.3 990.9 627.61 996.8C628.46 1000.6 628.84 1004.51 629.36 1008.38C629.46 1009.17 629.53 1010.35 629.08 1010.76C624.43 1015.04 620.33 1020.79 614.81 1023.09C597.72 1030.2 579.41 1024.65 561.71 1026.49C555.94 1027.09 550.13 1027.33 544.34 1027.54C541.55 1027.64 540.64 1028.84 540.55 1031.54C540.42 1035.67 539.93 1039.79 539.5 1043.9C539.42 1044.62 538.9 1045.29 537.43 1045.86C537.43 1041.57 536.96 1037.21 537.54 1033C538.42 1026.61 538.01 1025.31 531.96 1023.74C535.98 1020.73 532.89 1018.33 530.84 1016.08C533.6 1015.8 536.1 1016.27 537.38 1015.23C538.74 1014.12 539.52 1011.59 539.56 1009.67C539.66 1004.3 539.1 998.92 539.1 993.54C539.1 991.3 539.91 989.07 540.26 986.82C540.56 984.87 540.74 982.89 540.97 980.93C540.53 980.8 540.09 980.68 539.65 980.55C538.25 982.4 536.85 984.26 534.79 986.99C533.64 978.55 533.19 970.97 531.47 963.69C529.74 956.39 526.75 949.39 524.19 941.91C525.2 941.6 526.46 941.22 528.42 940.62C526.11 938.9 524.34 937.58 522.6 936.29C525.91 933.21 525.45 927.82 521.6 924.78C520 923.51 518.03 922.51 520.62 919.69C521.66 918.56 520.03 914.99 519.61 912.53C518.85 912.61 518.1 912.7 517.34 912.78L519.62 932.07C519.67 932.46 519.98 933 519.83 933.2C515.31 938.76 520.29 943.88 520.74 949.17C521.1 953.37 522.15 957.75 526.34 960.49C526.85 960.82 525.85 963.48 525.28 966.45C526.03 971.68 526.92 978.64 528.07 985.55C528.46 987.88 529.72 990.04 530.23 992.36C530.61 994.08 530.53 995.92 530.45 997.7C530.37 999.48 530.03 1001.25 529.76 1003.39C537.83 1004 533.14 1010.31 535.03 1013.94C530.84 1013.3 528.73 1014.96 529.04 1018.61C529.38 1022.68 529.88 1026.74 530.46 1030.78C530.58 1031.6 531.36 1032.32 531.83 1033.09C532.29 1033.85 533.28 1035.15 533.11 1035.32C529.25 1039.29 532.31 1041.41 534.09 1042.53C533.35 1048.9 532.71 1054.33 532.2 1058.69C530.23 1051.01 527.79 1042.58 525.98 1034.02C524.75 1028.21 524.06 1022.24 523.78 1016.3C523.45 1009.45 518.36 1006.07 513.49 1005.15C508.32 1004.18 504.41 1001.55 499.94 999.64C498.94 999.21 497.72 998.73 496.73 998.92C490.6 1000.13 486.42 998.11 483.74 992.4C481.24 987.08 476.87 985.49 471.94 988.7C468.78 990.75 465.93 993.43 463.37 996.22C460.47 999.37 457.36 1001.24 452.94 1000.57C447.68 999.77 443.77 1001.78 439.54 1005.25C433.54 1010.16 427 1014.15 417.99 1013.4C411.53 1012.86 404.76 1015.71 398.17 1017.22C391.76 1018.68 385.47 1020.87 379 1021.81C370.16 1023.09 361.17 1023.28 352.3 1024.37C346.92 1025.03 345.39 1020.98 344.67 1017.75C343.24 1011.3 342.91 1004.59 342.43 997.96C342.27 995.77 343.07 993.51 343.39 991.28C343.6 989.84 344.04 988.35 343.87 986.94C343.58 984.55 342.88 982.21 341.97 980.06C340.99 977.84 339.2 975.63 339.16 973.39C338.95 958.98 338.7 944.54 339.28 930.15C340.04 911.07 341.82 892.03 342.61 872.95C343.04 862.39 342.06 851.9 339.79 841.42C338.02 833.23 338 824.63 337.52 816.19C337 807.11 336.96 797.99 336.45 788.91C336.27 785.68 336.75 781.38 330.99 782.3C330.33 782.41 328.66 780.75 328.68 779.94C329.04 763.76 329.59 747.58 330.1 731.4C330.67 731.31 331.24 731.23 331.81 731.14C332.25 732.17 333.21 733.28 333.05 734.21C332.16 739.59 334.52 748.14 337.95 752.07C339.9 754.31 341.83 756.69 343.2 759.3C345.81 764.31 349.47 766.75 355.25 765.93C357.13 765.66 359.11 766.16 361 766.31C360.4 762.99 359.88 760.05 359.25 756.55H365.2C365.35 756.15 365.51 755.75 365.66 755.35C362.67 753.83 359.77 752.05 356.66 750.84C349.56 748.09 342.76 745.26 341.34 736.42C341.15 735.25 339.69 733.69 338.53 733.38C332.23 731.71 328.13 723.94 330.23 717.89C330.99 715.7 330.84 713.12 330.75 710.74C330.66 708.02 330.62 705.16 329.7 702.67C329.12 701.11 326.98 700.12 324.88 698.31C324.42 694.33 329.03 693.38 331.6 690.95C333.87 688.81 336.51 687.08 339.77 684.56C340.06 679.81 345.63 676.92 349.38 676.24C356.09 675.01 357.66 669.31 361.87 666.12C365.71 663.21 364.25 659.67 363.55 655.96C361.59 659.17 361.77 664.82 356.86 662.8C354.41 665.98 352.81 670.23 349.96 671.37C339.47 675.57 332.95 686.03 321.68 688.68C318.82 689.35 315.92 689.9 313.01 690.33C310.49 690.7 308.15 690.99 309.56 694.5C311.73 694.74 313.85 694.98 316.54 695.28C315.68 696.12 315.46 696.5 315.26 696.5C306.44 696.15 302.84 702.71 306.47 712.66C307.36 715.1 308.48 717.46 309.61 720.14C306.02 722.11 306.1 729.1 299.9 726.9C299.26 722.35 298.56 717.99 298.04 713.62C297.38 708.05 293.87 704.38 289.84 701.07C287.09 698.81 285.98 696.74 289.31 693.83C290.28 692.98 290 690.71 290.29 689.09C289.55 688.85 288.8 688.61 288.06 688.38C287.11 690.29 286.15 692.19 285.2 694.1C285.54 694.56 285.89 695.03 286.23 695.49C281.75 695.94 277.28 696.57 272.8 696.7C271.59 696.74 270.26 695.38 269.1 694.5C266.14 692.25 265.29 687.66 260.71 687.06C260.1 686.98 259.02 684.74 259.34 684.15C263.26 676.91 256.6 674.27 253.37 670.23C252.61 669.28 251.18 668.88 249.32 669.14C251.08 671.55 252.83 673.96 254.59 676.37C254.42 676.68 254.25 676.99 254.08 677.3C250.6 675.86 246.72 674.98 243.73 672.86C236.05 667.42 229.36 660.83 224.18 652.9C223.6 652.01 223.49 649.73 224.04 649.36C230.68 644.75 231.28 637.64 232.08 630.62C232.76 624.73 233.51 618.83 233.74 612.91C233.86 609.84 235.24 609.23 237.75 609.26C241.29 609.3 244.84 609.27 248.58 609.27C244.18 606.15 238.41 604.14 236.8 600.35C235.17 596.53 234.42 590.35 238.56 586.89C237 584.98 234.78 583.43 234.4 581.51C233.97 579.39 235.22 576.93 235.8 574.36C235.44 574.33 233.81 574.17 232.14 574.01C228.82 565.93 226.3 557.34 221.84 549.91C219.39 545.83 215.48 542.46 214.14 537.59C213.44 535.03 213.21 532.33 212.63 528.86C222.23 532.03 225.21 543.45 235.47 543.56C238.26 536.95 231.6 537.01 229.45 534.16C227.06 530.99 223.91 528.39 221.09 525.54L221.96 523.97C223.76 524.53 225.68 524.83 227.33 525.68C231.73 527.96 235.92 530.67 240.39 532.78C241.88 533.48 243.98 532.89 245.8 532.89C245.89 532.27 245.99 531.64 246.08 531.02C238.19 526.68 229.91 522.89 222.53 517.81C216.45 513.62 208.6 511.82 204.47 504.65C203.45 502.87 199.96 502.69 198.04 501.21C191.11 495.86 184.34 490.29 177.55 484.75C172.17 480.35 167.24 475.26 161.4 471.63C157.48 469.19 155.09 466.39 152.84 462.52C151.02 459.4 147.02 457.63 144.57 454.77C141.24 450.89 138.22 446.69 135.53 442.34C132.88 438.06 130.88 433.39 128.47 428.96C127.55 427.26 126.28 425.75 125.17 424.15C123.96 422.41 122.35 420.81 121.6 418.89C119.41 413.25 117.57 407.47 115.56 401.76C115.31 401.04 115.01 400.15 114.45 399.74C108.63 395.49 107.21 389.17 105.86 382.63C104.73 377.2 102.81 371.94 101.36 366.57C100.21 362.31 99.37 357.97 98.16 353.73C96.51 347.95 94.62 342.24 92.87 336.49C92.49 335.25 92.23 333.97 92.04 332.68C90.73 323.69 89.43 314.71 88.16 305.71C87.47 300.79 86.8 295.86 86.21 290.93C85.54 285.36 84.59 279.8 84.41 274.21C83.93 258.71 84.23 243.17 83.32 227.69C82.81 219.06 85.57 210.04 81.12 201.82C80.1 199.93 77.97 198.65 76.36 197.08C75.39 198.79 74.43 200.49 73.63 201.89C71.4 200.45 68.13 198.65 65.26 196.35C63.32 194.8 61.03 192.74 60.51 190.53C58.38 181.5 56.66 172.35 55.21 163.18C54.62 159.44 55.11 155.53 55.11 150.32C56.86 152.97 57.9 154.55 58.94 156.12C59.86 148.7 54.95 141.53 59.14 133.98C58.56 133.81 57.97 133.63 57.39 133.46C56.3 134.85 54.17 136.37 54.31 137.62C55.02 143.69 52 145.2 46.67 146.29C42.56 147.13 38.38 148.17 36.41 144.38C33.85 139.47 28.29 135.83 29.23 129.23C29.36 128.35 28.86 127.38 28.55 126C26.64 126.81 25.04 127.49 23.33 128.22C19.14 125.62 17.33 122.29 19.96 116.87C21 118.49 21.75 119.65 22.45 120.74H30.63C32.06 120.01 34.09 118.97 36.12 117.93C36.08 117.87 36.04 117.82 36 117.76C37.68 116.62 39.43 115.56 41.02 114.3C42.45 113.17 43.7 111.83 45.53 110.13C46.39 110.66 47.81 111.53 49.55 112.59C50.56 108.77 50.84 104.28 56.77 105.78C57.57 105.98 59.01 103.65 60.16 102.49C58.96 101.69 57.86 100.45 56.55 100.15C47.7 98.0701 38.75 99.1201 29.82 99.5701C29.18 99.6001 28.15 99.5201 27.92 99.1301C24.17 92.5701 18.81 97.8901 14.29 97.2001L14.39 97.3001C15.27 95.6501 16.16 94.0001 16.62 93.1401C15.48 89.5801 14.43 86.2801 13.15 82.2701C17.27 83.4401 15.07 89.5301 20.92 87.8601C18.97 83.2101 17.1 78.7401 14.69 73.0001C14.28 75.8901 14.07 77.4401 13.69 80.1001C13.06 77.1901 12.46 75.3201 12.28 73.4101C11.87 69.0101 14.67 66.6301 18.88 68.0301C23.2 69.4701 27.33 71.5001 31.64 73.0001C33.13 73.5201 35.09 72.7701 36.52 73.3601C38.62 74.2301 40.76 75.5101 42.18 77.2001C42.65 77.7601 41.28 80.5001 40.14 81.6401C36.91 84.9001 33.25 87.7201 30.04 90.9901C28.99 92.0601 28.82 94.0001 28.25 95.5401C28.84 95.9201 29.44 96.2901 30.03 96.6701C34.24 92.8401 38.16 88.6001 42.75 85.3001C46.71 82.4601 51.33 80.4101 55.87 78.5101C60.05 76.7701 64.55 75.7801 68.85 74.3001C70.28 73.8101 71.54 72.8201 73.63 71.6201C69.69 69.3901 67.22 68.2401 63.28 69.9601C59.37 71.6701 54.61 71.3601 50.28 72.2101C48.37 72.5801 46.59 73.6301 44.69 74.4001C44.93 71.1901 43.46 68.8401 38.61 68.2301C34.96 67.7801 31.42 65.5201 28.12 63.5801C26.73 62.7601 26.06 60.7001 24.6 58.4901C23.82 58.4401 21.69 58.2901 19.57 58.1501C19.54 57.9501 19.5 57.7501 19.47 57.5501C24.81 55.9101 30.16 54.2601 36.2 52.4001C36.05 49.2501 35.9 45.8601 35.67 40.9801C41.13 43.7001 46.11 46.1801 51.09 48.6601C50.25 50.7701 52.64 51.1201 55.05 51.6701C51.98 52.7401 48.92 53.8101 45.76 54.9201C44.04 52.5201 41.93 49.5901 39.83 46.6501C39.58 46.7501 39.33 46.8501 39.07 46.9501C39.92 48.9601 40.78 50.9601 42.17 54.2401C40.92 54.8101 39.13 56.2001 37.23 56.3501C33.88 56.6301 33.64 58.4601 34 62.3001C36.1 61.5601 37.88 60.4601 39.69 60.4301C41.72 60.3901 43.82 61.1701 45.8 61.8601C47.87 62.5801 50.4 66.2701 50.69 60.3701C50.84 57.3801 56.11 54.4401 59.5 54.6601C60.79 54.7401 62.12 54.4101 63.41 54.1901C70.51 52.9701 77.63 51.8301 84.69 50.3701C85.86 50.1301 86.74 48.4301 87.17 46.3601C79.84 46.7801 72.52 47.5301 65.19 47.4701C61.45 47.4401 57.3 46.7001 54.09 44.9201C49.34 42.2901 45.25 38.4601 40.67 34.9801C41.85 33.8901 43.66 32.2201 45.93 30.1301C38.86 29.6801 32.64 29.2801 26.43 28.8901C26.46 28.3801 26.5 27.8801 26.53 27.3701C38.55 28.0901 50.61 28.4001 62.57 29.6701C71.32 30.5901 79.88 29.2901 88.52 29.1601C92.9 29.1001 97.32 29.9601 101.68 30.6501C105.98 31.3301 110.44 27.6701 111 23.2001C111.34 20.4401 112.42 17.7601 112.95 15.8401C118.88 13.1001 124.48 10.5301 130.05 7.92009C130.62 7.65009 131.15 7.19009 131.58 6.72009C133.57 4.49009 135.67 0.190087 137.44 0.330087C143.21 0.780087 148.87 2.78009 154.53 4.33009C157.12 5.04009 159.55 6.55009 162.16 6.90009C167.25 7.57009 172.52 8.49009 177.52 7.82009C184.47 6.90009 191.78 5.69009 197.94 2.62009C204.31 -0.549914 210.51 0.0600866 216.86 0.0800866C223.58 0.100087 230.77 -0.559913 236.91 1.54009C249.08 5.72009 260.87 2.37009 272.82 2.07009C273.93 2.04009 275.56 2.15009 276.09 2.84009C279.16 6.86009 283.53 5.49009 287.48 6.09009C289.49 6.39009 292.04 7.01009 293.21 8.43009C298.83 15.2101 307.22 15.7701 314.6 18.5801C315.34 18.8601 316.22 18.7601 317.04 18.8301C318.97 15.8201 319.92 11.3501 325 13.8101C333.2 17.7801 335.29 21.7101 332.41 28.3501C331.93 29.4601 329.97 29.9301 328.02 31.1101C329.49 33.1901 331.72 35.9801 333.52 39.0101C335.34 42.0701 337.61 43.2901 341.26 43.0601C343.05 42.9501 344.89 44.7201 346.82 45.1701C349.13 45.7101 351.94 46.6501 353.85 45.8201C358.39 43.8601 362.47 40.8901 366.82 38.4601C371.84 35.6601 377.03 34.7301 382.54 37.2201C383.85 37.8101 385.48 38.2501 386.86 38.0401C394.98 36.8201 401.98 40.0101 409.29 42.8401C419.55 46.8201 429.18 51.7301 438.18 58.0301C439.78 59.1501 441.68 60.0401 443.57 60.5401C448.24 61.7501 447.4 64.1201 446.56 68.0201C445.22 74.2801 445.45 80.8801 445.1 87.3501C444.83 92.2501 446.35 97.5901 441.35 101.23C440.72 101.69 440.01 102.54 439.99 103.24C439.7 110.69 438.96 118.36 442.93 125.04C444.17 127.12 447.67 127.85 451.01 129.69C451.52 133.11 452.21 137.69 452.9 142.27C453.42 142.21 453.93 142.15 454.45 142.09C454.59 139.35 454.73 136.61 454.87 133.87C455.45 133.83 456.04 133.8 456.62 133.76C457.44 141.47 458.27 149.17 459.09 156.88C458.88 156.79 458.68 156.7 458.47 156.61C458.17 159.22 457.96 161.85 457.56 164.45C457.11 167.37 456.45 170.27 455.95 173.18C455.73 174.47 455.09 176.16 455.65 177.03C461.42 186.15 453.99 192.73 452.6 200.45C451.99 200.59 451.39 200.73 450.78 200.86C450.3 199.87 449.81 198.88 448.98 197.18C446.44 203.66 444.29 209.15 442.04 214.88C442.62 215.09 443.32 215.35 444.12 215.65C442.49 221.47 440.78 227.2 434.6 230.03C429.81 224.84 429.87 232.42 427.1 232.52C429.43 233.43 431.98 232.55 434.74 229.89L434.64 229.83ZM124.28 131.17C122.67 136.81 121.06 142.44 119.45 148.08C120.03 148.41 120.61 148.75 121.19 149.08C122.21 147.56 123.39 146.12 124.22 144.5C125.21 142.56 125.58 140.25 126.78 138.49C129.66 134.28 129.39 133.17 124.25 131.17C131.25 124.04 133.57 113.76 129.75 107.91C128.44 113.08 127.07 118.49 125.71 123.89C125.37 123.89 125.02 123.92 124.68 123.93C123.75 121.41 122.82 118.88 121.89 116.36C121.49 116.45 121.08 116.54 120.68 116.63C121.22 120.9 121.68 125.17 122.37 129.41C122.48 130.08 123.61 130.58 124.28 131.16V131.17ZM281.53 334.53C276.8 334.13 280.49 338.41 278.29 339.9C277.89 339.02 277.45 338.05 276.8 336.62C273.65 343.97 276.73 352.13 282.2 352.74C282.56 348.32 283.13 343.91 283.18 339.49C283.2 337.8 282.04 336.09 281.4 334.38C285 331.71 283.17 328.26 282.44 325.17C282.28 324.51 280.06 324.34 278.79 323.94C278.67 324.35 278.56 324.77 278.44 325.18C279.62 325.69 280.81 326.2 282.45 326.9C276.59 329.09 280.72 331.9 281.54 334.52H281.53V334.53ZM277.49 551C273.85 548.38 270.2 545.77 266.56 543.15C263.61 541.79 261.05 539.99 258.42 538.29C255.74 536.55 253.13 534.55 250.21 533.38C249.07 532.92 247.14 534.43 244.51 535.46C250.61 538.39 255.19 540.32 259.49 542.74C262.43 544.39 265.3 546.43 267.63 548.84C270.68 552.01 273.76 552.88 277.65 550.85C277.43 552.59 277.2 554.32 276.91 556.54C272.73 555.89 268.6 555.93 265.04 554.52C260.75 552.81 256.84 551.93 254.12 554.03C257.95 555.35 261.59 556.6 265.71 558.01C263.17 560.49 262 562.74 265.92 564.18C269.85 565.63 270.78 568.68 268.32 572.07C266.84 574.11 265.49 576.25 264.08 578.34C264.45 578.83 264.82 579.31 265.19 579.8C268.12 578.61 271.22 577.72 273.9 576.12C275.29 575.29 275.66 572.91 276.94 571.73C280.9 568.08 285.09 564.66 289.04 561.28C289.4 561.65 290.06 562.35 290.72 563.04C288.97 558.41 292.42 556.82 294.91 554.66C298.9 551.19 302.69 547.47 306.76 544.09C308.96 542.26 311.74 541.13 313.95 539.32C318.3 535.77 322.31 531.8 326.68 528.29C332.11 523.94 333.05 522.31 331.89 516.76C326.84 522.67 321.82 528.29 314.91 531.71C313.08 532.61 311.03 533.38 309.61 534.76C306.59 537.69 304.25 541.18 299.65 542.31C297.79 542.77 295.9 545.1 295.02 547.03C293.6 550.11 291.99 550.64 289.44 548.73C286.43 552.52 282.94 553.31 278.99 551.1C278.59 550.88 278.01 551 277.49 550.99V551ZM305.28 253.31C308.25 250.52 311.22 247.74 315.12 244.08C311.76 244.54 309.5 244.85 307.84 245.08C305.94 242.06 304.32 239.48 302.51 236.6C299.55 240.08 302.78 245.19 298.27 246.33C296.53 244.24 295.17 242.59 293.8 240.94C292.69 242.3 292.84 242.97 292.66 243.54C292.22 244.9 291.62 246.21 291.09 247.55C290.23 246.71 289.38 245.86 288.52 245.03C287.09 243.66 285.66 242.3 283.49 240.22C283.49 243.13 283.04 245.04 283.59 246.6C284.62 249.53 286.13 252.32 287.73 254.99C287.91 255.3 290.77 254.77 291.02 254.11C291.55 252.72 291.18 250.98 291.18 249.39C291.61 249.27 292.03 249.16 292.46 249.04C292.93 250.65 293.75 252.24 293.8 253.86C293.94 258.99 289.26 257.74 286.53 258.94C286.52 266.85 289.82 269.56 296.24 267.44C305.43 264.41 314.72 261.66 323.99 258.86C326.67 258.05 329.46 257.58 332.13 256.72C334 256.12 335.74 255.13 337.54 254.31C337.81 254.68 338.07 255.04 338.34 255.41C338.85 254.16 339.35 252.91 340.19 250.84C333.87 251.48 328.24 252.05 321.69 252.72C321.48 251.87 319.83 249.1 320.61 247.67C323.63 242.16 318.11 239.6 317.78 234.01C314.42 237.01 312.18 239.01 308.93 241.91C312.16 242.19 313.61 242.31 314.99 242.43C318.07 249.93 316.67 254.28 312.04 256.86C309.47 255.41 307.47 254.28 305.47 253.15L305.3 253.32H305.28V253.31ZM351.06 310.91C352.68 310.41 355.17 310.41 355.78 309.34C358.37 304.79 359.69 299.36 362.86 295.34C366.11 291.22 365.09 287.93 363.75 284.71C366.69 283.19 369.6 281.7 372.5 280.2C372.45 279.71 372.39 279.22 372.34 278.72C370.94 278.31 369.21 277.21 368.24 277.68C367.01 278.27 366.39 280.14 366.17 280.47C364.12 280.08 362.13 279.13 360.41 279.5C357.76 280.06 355.72 280.45 352.87 279.17C349.79 277.78 345.49 279.17 342.32 277.88C334.13 274.54 327.32 277.9 320.28 281.05C318.64 281.79 316.85 282.19 315.14 282.79C313.61 283.33 311.95 283.71 310.6 284.55C304.16 288.56 297.93 292.9 291.38 296.72C287.8 298.81 283.75 300.09 279.42 301.94C286.3 307.06 289.1 308.75 293.57 301.32C294.02 300.57 295.11 300.19 295.92 299.63C296.95 302.61 297.88 305.63 299.06 308.55C300.21 311.38 301.84 314.03 302.86 316.9C304.13 320.48 303.95 320.55 307.38 320.42C306.69 319.41 305.96 318.34 305.22 317.27C320.86 324.35 323.66 324.57 326.93 317.45C325.06 317.87 323.78 318.34 322.48 318.4C321.23 318.46 319.96 318.1 318.7 317.92C319.48 313.7 314.43 314.68 313.33 311.98C313.05 311.29 310.49 311.24 310.46 310.78C309.82 302.48 301.29 303.32 297.13 299.18C297.01 299.06 296.29 299.54 295.85 299.74C302.51 297.81 309.5 296.6 315.74 293.76C321.99 290.92 329.73 291.15 334.53 285.03C335.18 284.21 337.08 284.05 338.37 284.13C341.8 284.34 345.2 284.99 348.62 285.21C351.69 285.4 354.79 285.25 358.13 285.25C358.13 289.46 359 293.65 357.92 297.25C356.46 302.09 353.5 306.47 351.19 311.07C350.1 311.91 349 312.76 347.93 313.59C343.7 308.72 343.17 308.8 332.54 315.64C336.1 320.76 338.17 318.21 340.07 312.53C341.97 316.21 343.25 318.69 344.51 321.13C350.09 320.33 352.14 317.78 351.06 310.94V310.91ZM175.4 304.33C170.38 304.72 166.53 307.79 162.61 311.61C155.23 318.8 146.6 324.63 140.4 333.15C137.85 336.65 134 339.19 130.8 342.11C133.11 344.82 135.48 345.72 137.89 344.81C138.49 344.59 139.19 344.26 139.75 344.39C145.69 345.79 152.76 343.36 157.33 349.63C157.81 350.29 159.5 350.39 160.58 350.27C170.38 349.12 180.18 347.94 189.96 346.59C195.29 345.86 200.64 345.06 205.86 343.79C209.9 342.8 214.57 342.34 216.69 337.87C218 335.11 218.64 332.05 219.9 329.26C221.84 324.95 225.18 323.17 229.93 324.43C231.16 324.75 232.48 324.76 233.75 324.91C234.1 324.56 234.45 324.22 234.8 323.87C233.64 322.27 232.73 320.36 231.26 319.13C226.45 315.09 221.51 311.19 216.48 307.44C212.28 304.31 207.95 301.33 203.52 298.54C200.5 296.64 190.18 298.76 188.37 301.34C184.31 307.14 184.02 307.23 178.91 304.36C178.62 305.46 178.32 306.61 178.02 307.76C177.26 306.76 176.5 305.76 175.41 304.32L175.4 304.33ZM295.17 467.97C294.49 468.07 293.12 468.58 291.88 468.35C290.95 468.18 290.28 466.65 289.35 466.49C288.43 466.33 287.35 467.11 287.02 467.23C288.75 469.74 290.12 471.73 291.63 473.93C292.61 473.19 293.8 471.53 295.18 471.36C304.73 470.17 308.26 461.64 315.56 456.36C312.52 454.01 310.62 451.61 308.21 450.86C300.84 448.56 293.28 446.89 286.91 445.26C285.98 442.4 285.31 440.35 284.65 438.3C282.76 439.15 280.87 440.02 278.96 440.83C274.08 442.9 269.2 444.97 264.29 446.97C260.09 448.68 255.71 450.05 251.71 452.14C250.61 452.72 250.62 455.36 250.05 457.02C249.6 458.31 249.23 460.52 248.47 460.68C240.01 462.47 231.53 464.57 222.96 465.24C218.79 465.57 218.49 467.3 218.7 470.04C219.02 474.35 225.98 477.74 230.05 475.37C234.46 472.8 238.84 472.94 243.48 474.08C249.35 475.51 255.22 476.94 261.12 478.24C264.97 479.09 269.5 478.7 272.58 480.66C276.45 483.13 279.55 482.57 282.67 480.68C284.07 479.83 285.08 477.41 285.17 475.65C285.24 474.44 283.6 472.29 282.4 472.02C277.18 470.84 271.84 470.19 264.75 469.06C267.27 467.63 268.64 466.43 270.21 466.06C274.7 464.98 279.33 464.44 283.79 463.26C285.48 462.81 286.85 461.18 288.36 460.09C288.09 459.47 287.81 458.85 287.54 458.22C285.69 458.63 283.87 459.19 282 459.43C279.42 459.76 276.68 460.46 274.25 459.9C268.19 458.52 264.01 461.57 264.49 467.55C264.52 467.99 264.22 468.45 263.68 470.09C261.94 466.39 260.56 463.45 258.99 460.11C267.07 457.09 274.34 448.38 285.34 453.66C286.95 454.43 288.86 454.55 290.52 455.23C291.8 455.76 292.91 456.69 294.68 457.81C292.01 458.83 290.76 459.31 289.5 459.79C289.6 460.29 289.7 460.8 289.79 461.3H299.19C297.68 463.81 296.65 465.51 295.16 467.97H295.17ZM134.33 277.91C133.03 281.89 132.42 284.49 131.34 286.89C130.23 289.36 128.62 291.61 127.32 294C126.88 294.82 126.42 295.78 126.44 296.67C126.55 302.12 123.52 304.62 118.45 303.44C117.48 303.21 115.29 304.14 115.27 304.58C115.2 306.78 115.67 308.99 115.95 311.2C117.15 311.03 118.63 311.25 119.49 310.62C133.18 300.56 146.8 290.4 160.39 280.2C161.47 279.39 162.2 278.1 163.22 276.89C168.27 277.39 170.98 274.26 171.36 267.49C168.64 264.45 164.83 272.13 162.48 267.11C164.01 264.37 165.3 262.1 166.55 259.81C167.05 258.89 167.5 257.94 167.97 257.01C167.26 256.71 166.24 255.95 165.9 256.18C164.91 256.85 163.42 257.98 163.49 258.83C163.84 263.47 159.94 264.9 157.5 267.43C157.17 267.77 156.87 268.14 156.65 268.38C157.13 269.91 157.56 271.28 157.98 272.65C156.23 273.19 154.75 273.64 153.38 274.06C149.97 269.76 153.45 267.81 155.68 265.09C150.09 264.94 150.45 272.68 145.32 272.29C146.41 279.37 144.44 282.25 137.94 283.96C136.93 282.26 135.92 280.57 134.33 277.9V277.91ZM90.32 175.35C88.01 165.32 89.71 156.39 94.15 155.41C94.15 151.37 94.11 147.27 94.17 143.18C94.19 141.38 93.7 138.88 94.66 137.9C100.15 132.31 95.32 125.34 98.01 120.34C94.93 120.08 92.42 119.88 89.55 119.64C85.12 124.39 93.46 127.63 92.37 131.69C90.63 131.99 89.45 132.19 88.28 132.4C89.23 133.35 90.18 134.29 91.48 135.59C87.17 137.97 93.07 139.83 92.67 142.5H88.34C88.84 144.31 89.23 145.76 89.77 147.71C87.29 147.59 85.4 147.49 83.51 147.4C82.97 141.75 85.99 136.09 81.59 131.35C81.43 131.18 81.59 130.71 81.62 130.39C82.43 122.42 83.5 114.47 83.96 106.48C84.34 100.05 82.03 98.7501 76.16 100.95C77.94 118.13 79.71 135.18 81.48 152.25C83.31 151.74 84.59 151.37 85.22 151.2C82.88 154.88 80.48 158.65 78.1 162.39C81.28 162.79 83.41 162.88 85.42 163.45C85.83 163.57 85.74 165.44 85.89 166.58C83.11 166.03 81.13 165.64 78.2 165.06C82.91 169.07 86.46 172.1 90.32 175.38V175.35ZM256.15 403.42C259.67 403.06 262.71 404.05 266.09 403.66C274.24 402.73 278.59 396.49 284.54 392.61C288.95 389.73 289.62 383.7 294.77 380.58C300.91 376.86 300.15 374.04 293.75 370.15C287.51 366.35 284.51 360.63 283.68 353.57C280.61 355.11 279.88 356.96 282.28 358.44C281.33 359.21 280.55 359.85 280.46 359.93C283.09 363.81 284.37 367.02 286.71 368.87C291.68 372.81 293.91 376.03 286.59 379.53C287.04 383.98 283.83 385.88 280.78 387.89C277.66 389.95 274.63 393.55 271.39 393.75C263.88 394.21 256.92 394.68 250.86 400.01C247.44 403.01 245.22 408.19 247.01 412.5C253.89 410.99 256.12 408.88 256.15 403.43V403.42ZM238.16 6.62009L238.24 5.77009C237.73 5.54009 237.23 5.27009 236.7 5.10009C225.73 1.51009 214.85 4.13009 203.96 5.65009C196.24 6.73009 188.52 6.80009 180.77 9.01009C173.32 11.1401 164.97 10.1001 158.42 10.4001C154.87 13.0801 152.06 15.2001 149.22 17.3501C148.36 16.1001 147.84 15.3601 146.67 13.6601C145.75 21.1901 139.79 16.9101 136.73 18.9401C136.55 21.5201 136.39 23.7401 136.24 25.9301C144.38 28.1401 145.43 27.7101 146.67 21.7701C150.2 25.5701 154.69 23.8801 161.9 14.3201C164.46 14.7401 166.83 15.7401 168.96 15.3801C175.97 14.1801 182.84 12.1901 189.85 11.0601C196.95 9.92009 204.14 9.34009 211.31 8.71009C220.26 7.92009 229.22 7.32009 238.17 6.64009V6.62009H238.16ZM199.78 262.72C198.95 257.96 200.13 253.17 195.95 249.97C195.37 253.66 195.48 257.19 194.14 260.03C193.13 262.17 190.44 263.81 188.14 264.9C187.4 265.25 185.61 262.79 184.08 262.18C182.63 261.6 180.6 261.14 179.3 261.71C172.65 264.62 172.3 265.69 173.96 275.72C179.08 274.04 184.02 272.43 189.56 270.61C190.33 271.14 191.92 272.22 193.54 273.33C194.99 271.96 196.15 270.87 197.24 269.85C199.1 270.82 200.63 271.85 202.31 272.45C206.87 274.06 212.31 270.12 211.82 265.72C211.47 262.63 211.2 259.54 210.86 256.13C209.8 255.59 208.36 254.87 206.09 253.73V261.55C203.98 261.94 201.99 262.31 199.78 262.72ZM420.61 246.23L421.72 247.25C420.55 248.72 419.23 250.1 418.24 251.69C414.4 257.84 410.37 263.89 407.01 270.29C404.9 274.3 402.68 278.71 407.41 283.08C408.78 284.35 408.9 287.35 408.96 289.58C409.07 293.37 408.68 297.17 408.49 300.96C409.09 300.98 409.69 301 410.29 301.02C410.56 295.01 410.77 288.99 411.13 282.98C411.3 280.18 411.2 277.19 412.19 274.66C413.89 270.32 416.27 266.22 418.52 262.11C420.33 258.81 422.27 255.56 424.35 252.43C426.97 248.49 429.81 244.7 432.7 240.64C429.62 238.79 428.96 233.39 424.21 235.74C422.95 238.41 421.68 241.24 419.53 242.99C415.85 245.98 411.68 248.38 407.62 250.88C404.29 252.93 404.22 257.31 407.27 259.19C407.62 257.53 407.39 254.97 408.48 254.12C412.27 251.17 416.52 248.81 420.6 246.23H420.61ZM276.63 336.26C276.78 333.73 277.43 331.19 276.98 328.88C275.11 319.26 272.86 309.71 270.84 300.12C269.57 294.1 269.36 287.53 261.63 285.07C258.97 286.8 257.13 289.07 258.62 293.02C262.35 302.88 267.35 312.27 268.54 323.06C269.09 328.01 268.59 334.26 276.63 336.26ZM376.79 451.53C376.73 451.57 376.66 451.61 376.6 451.65C375.79 454.07 375.7 457.41 374.02 458.74C370.03 461.91 369.21 463.32 371.53 467.99C372.96 470.86 374.08 473.61 370.95 476.33C370.37 476.83 370.83 478.95 371.32 480.1C371.7 481 372.88 481.55 372.93 481.6C373.65 479.12 374.09 477.19 374.76 475.34C375.86 472.29 377.31 469.35 378.24 466.26C379.4 462.39 380.05 458.37 381.18 454.49C381.93 451.91 383.13 449.45 384.17 446.96C385.87 442.9 387.77 438.91 389.26 434.77C390.05 432.59 390.16 430.17 390.58 427.86C386.33 427.47 388.78 425.05 389.3 423.37C390.28 420.21 391.43 417.1 392.51 413.96C391.88 413.75 391.26 413.54 390.63 413.33C388.63 418.93 386.62 424.52 384.64 430.13C382.86 435.17 381.16 440.24 379.35 445.27C378.59 447.38 377.65 449.43 376.79 451.51V451.53ZM517.79 867.9C517.18 872.29 516.69 875.77 516.2 879.26L517.67 879.77C518.4 878.59 519.04 877.34 519.89 876.26C520.75 875.18 521.82 874.26 522.22 873.86C521.94 869.03 521.67 864.36 521.38 859.69C521.28 858.09 521.07 856.49 520.98 854.89C520.74 850.9 520.52 846.9 520.31 842.91C520.11 839.06 519.94 835.21 519.76 831.36C519.19 831.24 518.62 831.11 518.05 830.99C516.46 832.34 513.87 833.46 513.51 835.08C512.86 837.96 513.46 841.16 513.74 844.2C513.88 845.78 514.62 847.31 514.79 848.89C515.09 851.58 514.65 854.46 515.47 856.95C516.22 859.23 518.23 861.09 519.32 862.63C517.91 864.34 516.7 865.27 516.38 866.45C516.24 866.98 517.88 867.99 517.78 867.9H517.79ZM392.31 412.46C392.86 412.23 393.4 412 393.95 411.77C394.47 407.31 393.63 401.97 395.81 398.59C399.44 392.98 398.68 387.07 399.74 381.27C400.32 378.11 400.46 374.67 401.86 371.9C404.81 366.05 403.43 360.26 402.56 354.26C401.13 356.45 399.45 359.32 400.24 361.04C402.56 366.04 399.37 369.87 398.55 374.17C398.31 375.46 397.56 376.64 397.29 377.93C395.19 387.85 393.06 397.76 391.18 407.72C390.9 409.19 391.89 410.89 392.29 412.48L392.31 412.46ZM115.56 162.47C118.26 158.94 117.47 156.02 115.6 153.11C114.75 151.79 114.44 150.09 114.04 148.52C113.17 145.14 113.13 141.26 111.33 138.52C110.07 136.61 106.45 136.25 103.88 135.2C103.43 136.92 102.17 138.96 102.7 140.3C104.19 144.07 106.41 147.56 108.59 151.61C109.37 149.69 109.79 148.67 110.42 147.11C112.31 152.75 113.93 157.61 115.56 162.48V162.47ZM415.34 366.83C417.13 366.5 418.69 366.52 418.79 366.14C421.19 357.39 423.43 348.6 425.59 340.23C423.17 339.9 421.33 339.66 418.74 339.31C417.65 348.13 416.55 357.03 415.34 366.83ZM357.54 88.1201C358.14 88.3701 358.73 88.6201 359.33 88.8701C360.33 87.0801 361.8 85.4001 362.22 83.4801C362.74 81.1101 363.53 79.8801 365.77 78.4301C369.63 75.9401 372.72 72.2101 375.93 68.8001C376.52 68.1701 376.48 66.4901 376.1 65.5601C375.86 64.9801 374.43 64.6901 373.52 64.6501C372.6 64.6001 371.65 65.0201 370.8 65.2101C370.22 64.0001 369.75 63.0001 369.84 63.1901C367.04 67.5201 364.27 72.0901 361.21 76.4701C358.67 80.1001 357.77 83.9901 357.54 88.1201ZM255.13 14.4301C256.61 11.9301 258.13 9.35009 259.93 6.30009C255.25 6.55009 250.33 4.40009 246.1 6.20009C246.7 9.42009 247.12 11.6601 247.73 14.9001C249.09 14.1201 250.7 13.1901 252.51 12.1401C253.38 12.8901 254.62 13.9701 255.15 14.4201H255.13V14.4301ZM327.44 83.4401C326.76 84.2201 326.09 84.6601 325.93 85.2301C325.48 86.8801 325.23 88.5801 324.9 90.2701C326.42 89.8001 328.25 89.7001 329.38 88.7601C330.85 87.5301 331.76 85.6401 332.31 84.8601C330.79 82.3201 329.81 80.1301 328.3 78.3701C327.59 77.5401 325.9 77.5501 324.65 77.1901C324.49 77.5601 324.33 77.9201 324.17 78.2901C325.2 79.9101 326.23 81.5301 327.44 83.4401ZM343.01 58.2901C343.05 61.4801 342.69 63.4701 339.7 66.0101C336.42 68.8001 335.78 74.7001 334.06 79.0601C339.64 77.4901 346.14 63.7201 343.01 58.2901ZM110.95 116.59C109.94 115.31 109.54 114.68 109.02 114.18C108.33 113.52 107.54 112.97 106.8 112.37C106.39 113.36 105.33 114.8 105.67 115.28C107.28 117.59 109.25 119.63 111.87 122.67C112.79 116.97 113.49 112.7 114.18 108.43C113.52 108.33 112.85 108.23 112.19 108.13C111.83 110.58 111.48 113.03 110.96 116.59H110.95ZM260.21 575.95C260.29 575.41 260.37 574.87 260.45 574.33C253.12 573.91 245.8 573.48 238.47 573.06C238.44 573.62 238.41 574.19 238.37 574.75C245.52 576.98 252.9 575.91 260.2 575.95H260.21ZM361.37 50.0401L360.97 48.0901C356.35 48.8001 351.74 49.5101 347.12 50.2201C347.21 50.7301 347.3 51.2401 347.38 51.7601C352.44 53.8601 357.08 53.1801 361.36 50.0401H361.37ZM338.89 64.2301C343.72 59.4001 339.89 56.1801 339.04 52.8901C338.83 52.0901 336.8 51.7601 334.58 50.7501C336.21 55.8501 337.4 59.5501 338.89 64.2301ZM119.01 34.2101C124.38 32.0001 128.54 30.2801 132.71 28.5701C128.69 25.7901 122.3 28.7001 119.01 34.2101ZM367.32 45.9201C369.53 44.1701 371.08 43.2101 372.26 41.9101C373.11 40.9601 373.47 39.5601 374.04 38.3701C373.45 38.0601 372.85 37.7501 372.26 37.4401C369.75 40.7001 367.24 43.9501 364 48.1601C367.86 48.3501 370.24 48.4701 372.63 48.5901C372.63 48.2401 372.64 47.8901 372.65 47.5501C371.27 47.1301 369.9 46.7101 367.32 45.9301V45.9201ZM351.76 251.72C351.63 251.21 351.5 250.71 351.37 250.2C345.76 247.8 343.12 248.93 340.28 255.69C344.54 254.22 348.15 252.97 351.75 251.72H351.76ZM350.76 297.72C350.04 297.42 349.32 297.12 348.6 296.83C346.9 300.25 345.15 303.66 343.58 307.14C343.46 307.4 344.52 308.53 345.15 308.67C345.77 308.81 347.02 308.37 347.21 307.88C348.51 304.54 349.6 301.12 350.76 297.72ZM403.05 344.35C403.71 344.46 404.37 344.57 405.03 344.67C405.64 339.46 406.26 334.26 406.91 328.7C401.52 333.34 403.98 339.17 403.05 344.35ZM191 122.55C190.53 122.41 190.06 122.28 189.6 122.14C188.74 125.82 187.88 129.5 187.01 133.22C190.86 134.28 191.58 132.35 191 122.54V122.55ZM343.96 732.32C347.32 731.7 349.72 731.26 352.13 730.82L352.22 729.68C349.95 728.48 347.67 727.27 344.69 725.69C344.43 728.09 344.23 729.89 343.96 732.32ZM98.29 34.7501V33.4001C95.65 32.6901 93.04 31.7601 90.35 31.4101C89.56 31.3101 88.56 32.8201 87.65 33.5901C88.49 34.1301 89.33 35.1101 90.18 35.1301C92.87 35.2001 95.58 34.9101 98.28 34.7501H98.29ZM189.13 255.87C187.49 254.07 185.99 252.42 184.5 250.78C183.98 251.07 183.45 251.36 182.93 251.65C183.22 254.34 183.52 257.03 183.87 260.3C185.82 258.66 186.94 257.72 189.13 255.87ZM57.02 34.7901C53.49 29.3201 51.19 29.2301 46.79 33.9001C50.22 34.2001 53.08 34.4501 57.02 34.7901ZM106.7 133.17C108.6 131.82 110.42 130.96 110.33 130.53C109.74 127.94 108.71 125.45 107.83 122.93C107.27 123.07 106.71 123.21 106.14 123.35C106.3 126.13 106.45 128.9 106.7 133.17ZM61.96 123.46C63.87 123.37 65.5 123.3 67.14 123.22C67.71 122.88 68.28 122.55 68.85 122.21C61.58 120.85 69.03 116.4 65.03 113.46C63.96 116.95 63.09 119.78 61.97 123.46H61.96ZM365.85 254.03C363.72 252.36 362.6 251.19 361.24 250.48C359.72 249.69 357.99 249.3 356.02 248.63C355.77 250.07 355.48 251.7 355.3 252.72C358.6 253.13 361.25 253.46 365.84 254.03H365.85ZM522 901.26C519.8 903.06 518.59 904.05 516.83 905.48C518.36 907.12 519.8 908.66 522 911V901.25V901.26ZM305.38 137.2C307.6 135.22 308.9 134.07 310.2 132.91C308.69 131.51 307.17 130.12 305.66 128.72C305.28 128.92 304.9 129.12 304.52 129.32C304.75 131.45 304.99 133.58 305.38 137.21V137.2ZM345.34 707.69C346.12 707.49 346.89 707.3 347.67 707.1C346.96 704.5 346.26 701.89 345.55 699.29C344.88 699.56 343.61 699.94 343.63 700.08C344.11 702.63 344.74 705.16 345.34 707.69ZM423.14 337.56C424.15 337.57 425.16 337.59 426.17 337.6C426.17 335.28 426.22 332.95 426.04 330.64C426.04 330.51 424.15 330.53 423.14 330.48V337.56ZM165.78 110.3C164.79 112.63 163.93 114.65 163.06 116.67C165.43 116.27 166.7 115.61 167.85 114.8C170.52 112.93 169.69 111.15 165.77 110.3H165.78ZM138.42 129.61C144.12 129.66 143.34 126.8 143.01 124.48C142.92 123.85 141.7 123.38 141 122.83C140.23 124.86 139.45 126.89 138.42 129.61ZM88.03 59.1401C87.14 56.5201 86.43 54.4101 85.71 52.2901C84.96 52.8901 83.72 53.3701 83.54 54.1201C82.88 56.7701 83.13 59.1501 88.03 59.1401ZM52.19 96.9201C50.78 93.9401 49.96 92.2201 48.62 89.3801C47.14 92.0901 46.26 93.6901 45.38 95.2901C47.25 95.7401 49.11 96.1801 52.19 96.9201ZM455.01 181.52C454.38 181.63 453.75 181.74 453.13 181.85C452.82 184.17 452.52 186.5 452.21 188.82L453.59 189.51C454.43 188.31 455.77 187.2 455.99 185.9C456.22 184.53 455.39 182.98 455.02 181.52H455.01Z" fill="white"/>
<path d="M236.13 765.09C238.38 765.28 240.62 765.48 243.56 765.73V776.97C244.38 777.03 245.2 777.08 246.02 777.14C246.54 774.24 247.07 771.35 247.57 768.55C250.15 769.86 252.84 771.23 255.83 772.75C255.93 777.81 244.07 783.69 258.18 789.36C256.54 790.07 255.39 790.37 254.47 791.01C251.68 792.95 251.78 795.21 253.78 797.79C258.21 803.51 258.02 805.12 252.66 809.86C247.97 814.02 248.61 820.11 254.92 822.6C253.29 824.9 251.84 827.09 250.23 829.15C249.22 830.45 247.85 831.48 246.84 832.79C244.14 836.27 245.6 839.85 249.97 840.24C252.92 840.5 255.92 840.29 259.4 840.29C257.3 843.25 255.58 846.64 252.99 849.09C250.1 851.82 250.67 854.21 253.12 855.93C256.83 858.53 255.29 861.04 253.95 863.85C252.9 866.04 250.61 869.73 251.17 870.25C253.9 872.77 257.32 874.89 261.43 872.67C262.12 872.3 262.79 871.89 263.44 871.51C267.65 875.98 263.91 878.95 261.42 881.54C258.55 884.52 258.21 887.2 258.73 891.29C259.17 894.76 257.19 898.9 255.32 902.19C253.12 906.05 249.87 909.31 247.08 912.83C246.27 912.68 245.46 912.54 244.65 912.39C246.58 914.19 248.22 916.72 250.5 917.59C252.98 918.52 253.76 919.6 253.28 921.86C252.63 924.92 251.74 927.93 251.06 930.98C250.6 933.06 249.32 936.18 250.2 937.07C251.82 938.71 254.7 939.23 257.16 939.82C258.13 940.05 259.33 939.02 260.47 938.88C263.37 938.54 265.73 939.01 264.38 942.86C263.51 945.34 262.93 948.1 261.43 950.15C258.56 954.05 256.82 958.04 257.59 962.94C257.68 963.5 257.43 964.19 257.15 964.72C254.15 970.34 255.29 972.33 263.07 973.54C261.07 978.87 259.22 984.08 257.15 989.2C256.18 991.6 255.08 993.63 257.6 995.92C258.42 996.66 257.97 998.68 258.32 1000.06C259.12 1003.18 259.32 1006.79 261.1 1009.24C264.07 1013.34 258.89 1015.79 259.96 1019.28C260.5 1021.04 260.6 1022.93 260.91 1024.76C261.56 1024.82 262.21 1024.88 262.85 1024.94C264.99 1021.56 267.09 1018.15 269.3 1014.82C269.91 1013.9 270.89 1013.22 271.69 1012.43C272.4 1013.57 273.65 1014.67 273.72 1015.84C274.05 1020.94 274.36 1026.08 274.03 1031.17C273.84 1034.09 277.58 1037.82 272.93 1039.91C270.13 1041.17 266.95 1041.56 264 1042.53C253.32 1046.04 242.3 1046.15 231.2 1046.82C216.54 1047.71 201.99 1050.4 187.42 1052.57C185.48 1052.86 183.46 1054.28 182 1055.71C178.56 1059.09 174.67 1060.57 169.86 1060.35C164.7 1060.12 159.53 1060.19 154.36 1060.34C151.09 1060.44 147.84 1060.92 143.89 1061.3C143.64 1056.48 143.28 1051.23 143.11 1045.98C142.48 1026.58 142.58 1007.12 141.1 987.79C139.92 972.46 137.36 957.17 134.32 942.08C133.04 935.73 132.81 929.37 131.8 923.05C130.76 916.57 130.54 909.97 129.66 903.47C129.12 899.43 127.95 895.48 127.19 891.46C125.53 882.71 125.1 873.51 122.04 865.28C118.27 855.17 118.99 845.21 119.49 835.05C119.57 833.46 121.12 831.99 121.56 830.35C122.06 828.45 122.88 826.06 122.17 824.53C120.15 820.21 117.54 816.14 114.9 812.15C114.1 810.93 112.52 809.76 111.16 809.56C110.44 809.46 108.64 811.51 108.66 812.57C108.74 816.87 109.33 821.15 109.76 825.44C109.8 825.86 110.21 826.26 110.2 826.67C109.93 836.62 109.05 846.58 109.48 856.5C109.95 867.23 111.64 877.9 112.8 888.59C112.87 889.23 113.25 889.97 113.04 890.48C109.85 898.58 112.41 906.52 113.58 914.51C113.8 915.97 113.58 917.5 113.81 918.96C114.43 922.81 115.35 926.61 115.83 930.47C116.38 934.9 116.49 939.38 116.98 943.82C117.27 946.41 118.23 948.94 118.35 951.53C118.6 956.78 118.5 962.04 118.52 967.3C118.54 973.86 118.32 980.43 118.62 986.98C118.89 992.85 119.76 998.69 120.27 1004.56C120.35 1005.52 120.3 1006.89 119.71 1007.44C116.02 1010.95 117.44 1015.52 117.13 1019.66C117 1021.4 118.03 1023.22 118.54 1025C119.69 1023.82 120.83 1022.64 122.47 1020.96C125.51 1024.02 124.98 1028.08 124.92 1032.02C124.9 1033.18 124.88 1035.18 125.39 1035.38C129.48 1036.91 128.63 1040.34 128.66 1043.33C128.75 1051.59 128.69 1059.85 128.69 1069.48C111.69 1069.48 93.57 1069.94 75.5 1069.32C62.42 1068.87 49.76 1070.86 36.97 1072.78C31.65 1073.58 26.11 1072.91 20.44 1072.91C19.64 1068.23 18.81 1063.57 18.08 1058.89C17.93 1057.93 17.78 1056.59 18.29 1055.97C22.95 1050.31 20.24 1044.42 19.42 1038.4C18.92 1034.68 20.06 1030.77 20.23 1026.93C20.36 1023.91 20.21 1020.87 20.05 1017.85C19.86 1014.29 20.6 1011.55 25.27 1011.75C24.75 1009.98 24.35 1008.61 23.89 1007.06H16.95C16.95 998.59 17.31 990.31 16.86 982.07C16.27 971.41 19.34 960.98 16.76 950.01C14.7 941.26 16.13 931.67 16.24 922.46C16.26 921.02 17.48 919.61 18.14 918.18C18.79 916.77 19.42 915.35 20.07 913.93L18.91 913.39C18.38 914.18 17.86 914.98 17.29 915.83C16.86 915.4 16.48 915.2 16.46 914.97C15.95 908.89 15 902.79 15.12 896.72C15.28 888.45 16.05 880.17 17.01 871.95C17.28 869.59 19.14 867.44 20.16 865.14C20.47 864.45 20.76 863.41 20.46 862.84C15.88 854.03 17.99 845.43 21.2 836.89C22.01 834.74 21.65 833.65 20.33 831.47C18.53 828.49 18.42 824.04 18.72 820.31C19.4 811.99 17.51 803.39 21.2 795.35C21.46 794.78 21.04 793.68 20.62 793.04C14.52 783.66 15.96 773.55 17.89 763.5C19.17 756.84 21.04 750.29 22.63 743.69C23.5 740.06 23.61 736.01 25.37 732.88C28.97 726.5 33.46 720.63 41 717.63C39.27 714.08 39.48 710.91 44.3 709.18C42.83 707.52 41.9 706.47 40.71 705.12C42.86 703.09 44.73 700.22 47.36 699.07C53.06 696.56 59.2 695.05 65.07 692.89C68.47 691.64 71.59 689.59 75.02 688.46C81.93 686.19 89.04 684.49 95.93 682.17C99.93 680.83 103.3 677.77 108.01 678.34C109.11 678.47 110.39 677.14 112.66 675.89C110.06 674.85 108.67 674.29 106.79 673.53C111.31 667.19 118.24 667.45 124.72 666.37C122.13 670.87 115 669.41 113.58 675.78C117.24 674.44 120.91 673.1 124.98 671.61V677.47C122.79 677.37 120.82 677.07 118.9 677.28C117.98 677.38 117.16 678.44 116.3 679.07C116.87 679.84 117.42 680.63 118.03 681.37C120.32 684.14 122.54 686.97 124.98 689.61C125.85 690.55 127.87 691.85 128.34 691.53C131.76 689.15 133.85 690.42 136.31 693.16C137.46 694.44 139.92 694.54 142.45 695.4C141.95 696.43 141.56 697.84 140.72 698.86C137.04 703.33 138.03 707.04 143.15 709.1C144.44 709.62 145.8 711.73 145.89 713.18C146.13 717.19 147.6 718.89 151.81 719.54C156.04 720.19 160.23 721.04 161.71 727.14C162.77 731.51 167.57 734.88 170.34 738.95C172.67 742.37 174.48 746.15 177.07 750.75C178.39 750.96 181.06 751.37 184.17 751.86V746.45C178.33 745.21 174.16 738.16 175.32 731.99C175.5 731.01 174.5 729.85 174.54 728.79C174.61 726.92 174.44 724.52 175.49 723.32C177.36 721.19 178.42 722.92 179.75 724.86C182.75 729.23 187.74 732.46 186.57 738.93C186.44 739.67 187.82 740.68 188.96 742.17C189.69 740.34 190.05 739.43 190.84 737.45C193.13 739.07 195.73 740.35 197.58 742.34C201.12 746.13 203.86 750.74 209.79 751.35C210.98 751.47 212.52 752.32 213.13 753.31C216.32 758.48 221.61 758.23 226.6 759.1C229.1 759.54 231.46 760.76 233.94 761.64C232.64 764.58 231.6 766.46 230.96 768.46C229.6 772.77 233.58 777.24 237.97 776.37C238.63 776.24 239.44 775.45 239.65 774.8C239.85 774.17 239.54 773.2 239.14 772.58C237.78 770.46 236.28 768.42 234.83 766.35C235.28 765.93 235.73 765.52 236.19 765.1H236.13V765.09ZM107.08 691.19C105.94 690.59 104.57 689.88 103.2 689.16C102.72 690.31 102.4 691.56 101.73 692.58C100.95 693.76 99.71 695.75 98.95 695.63C96.82 695.29 94.82 694.04 92.9 693.21V698.89C94.8 699.08 96.53 699.25 98.26 699.43C97.98 701.04 97.71 702.65 97.43 704.25C102.74 704.39 111.47 696.3 113.33 688.3C110.59 689.57 108.69 690.44 107.09 691.19H107.08ZM80.1 711.74C80.41 711.24 80.72 710.74 81.02 710.24C80.08 708.69 79.44 706.15 78.14 705.75C71.74 703.77 74.27 710.71 71.06 712.84H76.16C74.79 715.77 73.49 718.56 72.12 721.47C73.9 721.79 75.04 722.03 76.19 722.19C77.39 722.36 78.61 722.45 80.1 722.61C79.33 720.91 78.8 719.73 78.19 718.38C85.72 717.86 86.99 716.69 85.67 711.73H80.09H80.1V711.74ZM25.73 1007.23C26.64 1003.23 27.3 1000.35 28.01 997.22C26.88 997.14 25.81 997.07 24.27 996.97C24.78 999.57 26.91 1002.59 22.06 1002.76C23.27 1004.24 24.07 1005.21 25.73 1007.23Z" fill="white"/>
<path d="M69.9 298.56C71.47 307.03 73.03 314.88 74.35 322.76C74.94 326.29 74.89 329.92 75.44 333.46C76.01 337.19 76.94 340.87 78.05 346.17C75.98 350.24 76.74 369.74 80.91 374.07C80.71 370.05 80.74 366.83 80.34 363.66C79.92 360.41 79.08 357.22 78.43 354.01L80.46 353.44C81.72 357.15 83 360.85 84.25 364.57C84.51 365.34 84.43 366.58 84.92 366.85C88.14 368.59 86.7 371.14 86.69 373.75C86.65 381.67 83.38 388.23 78.93 394.35C78.29 395.23 75.39 395.8 75.05 395.35C70.7 389.7 66.34 382.5 69.42 376.25C73.95 367.03 69.18 358.52 70.45 349.81C70.57 348.96 70.09 347.42 69.49 347.17C62.93 344.38 62.99 338.32 62.24 332.73C61.65 328.31 61.41 323.84 60.95 318.58C57.82 319.8 55.16 320.84 51.52 322.26C51.11 321.43 49.59 319.59 49.3 317.57C47.54 305.3 47.67 293.1 50.99 281.01C51.29 279.93 49.88 278.29 49.08 277.03C48.28 275.78 47.05 274.77 46.43 273.45C46.21 272.99 47.3 271.26 47.71 271.29C49.18 271.38 51.37 271.53 51.93 272.47C54.63 277 57.05 281.71 59.22 286.52C60.21 288.72 60.35 291.29 60.94 293.67C62.23 298.9 65.78 299.88 69.94 298.57H69.9V298.56Z" fill="white"/>
<path d="M65.78 282.35C64.87 280.51 63.97 278.66 63.05 276.83C60.07 270.85 57.5 264.55 50.28 262.18C49.48 261.92 48.86 260.42 48.58 259.38C46.76 252.53 46.02 245.78 50.27 239.36C51.12 238.08 51.12 236.25 51.39 235.18C52.48 236.63 53.77 238.32 55.06 240.02C55.55 239.88 56.04 239.74 56.53 239.61C55.5 234.08 61.88 229.33 57.03 223.09C55.73 221.42 56.78 217.79 57 215.08C57.33 211.07 57.89 207.07 58.35 203.07C58.86 203.07 59.36 203.07 59.87 203.05C59.87 206.11 60.57 209.37 59.72 212.17C58.14 217.36 60.09 222.11 66.16 224.3C65.3 218.54 64.48 213.04 63.49 206.45C67.6 208.16 70.54 209.38 73.62 210.66C72.67 217.23 71.71 223.81 70.76 230.39C70.69 230.88 70.81 231.52 70.54 231.84C64.33 239.18 67.41 249.6 62.12 257.29C61.49 258.21 61.61 260.72 62.36 261.35C66.54 264.88 66.84 269.36 66.57 274.29C66.44 276.79 67.17 279.33 67.51 281.85C66.93 282.01 66.36 282.18 65.78 282.34V282.35Z" fill="white"/>
<path d="M140.53 644.57C140.46 638.73 155.2 620.14 162.19 617.38C161.84 620.53 162.03 623.32 161.12 625.68C160.28 627.87 158.26 629.6 156.29 632.13C161.81 633.88 164.48 631.76 166.84 629.11C168.59 627.14 170 624.86 171.79 622.94C174.46 620.08 177.29 618.43 181.37 621.06C182.9 622.05 185.5 621.2 187.46 621.75C189.25 622.24 190.84 623.48 192.52 624.39C190.84 626.04 189.43 628.23 187.42 629.23C182.38 631.76 177.07 633.76 171.87 635.96C170.97 636.34 170.08 636.77 169.14 637.03C161.81 639.02 154.47 640.98 147.13 642.93C145.09 643.47 143.03 643.94 140.52 644.56H140.53V644.57Z" fill="white"/>
<path d="M158.33 477.77C160.8 479.02 163.04 479.86 161.74 476.71C166.53 481.81 171.26 486.99 176.15 491.99C180.07 496.01 184.06 499.97 188.28 503.67C191.15 506.19 190.89 509.23 188.59 510.84C186.85 512.06 182.77 512.2 181.15 510.96C173.4 505.05 168.3 496.87 163.67 488.4C161.9 485.16 159.74 482.13 157.76 479.01C157.95 478.59 158.14 478.18 158.33 477.76V477.77Z" fill="white"/>
<path d="M214.43 699.21C213.66 696.38 212.89 693.54 211.98 690.18C214.26 691.35 216.14 693.07 217.26 692.67C218.45 692.25 218.95 689.82 219.74 688.26C220.04 687.67 220.28 687.05 220.6 686.47C221.85 684.26 224.28 681.91 220.62 679.86C217.19 677.93 214.42 679.43 212.3 682.32C211.77 683.04 211.69 684.08 210.76 684.79C209.26 676.64 211.9 669.71 218.37 663.05C222.13 667.13 226.43 671.21 229.85 675.92C230.66 677.03 228.87 680.52 227.63 682.52C224.47 687.63 221.02 692.56 217.5 697.44C216.88 698.3 215.36 698.52 214.25 699.03L214.42 699.2L214.43 699.21Z" fill="white"/>
<path d="M77.32 236.42C77.75 239.05 78.24 240.46 78.16 241.82C77.61 250.82 76.37 259.82 76.5 268.81C76.58 274.12 78.88 279.38 79.98 284.7C80.57 287.55 81.18 290.54 80.84 293.36C80.7 294.54 78.14 295.43 76.6 296.52C72.49 280.8 65.97 256.22 77.32 236.43V236.42Z" fill="white"/>
<path d="M19.39 145.21C20.02 146.75 20.65 148.28 21.27 149.82C20.74 150 20.22 150.19 19.69 150.37C17.9 144.78 16.1 139.19 14.31 133.6C14.84 133.44 15.37 133.28 15.9 133.12C16.32 135.13 16.74 137.14 17.15 139.16C17.6 139.1 18.06 139.05 18.51 138.99C18.51 137.13 18.41 135.25 18.57 133.4C18.63 132.75 19.38 131.61 19.72 131.64C20.55 131.72 21.73 132.15 22.08 132.8C25.32 138.97 28.67 145.11 31.46 151.48C33.48 156.11 34.68 161.09 36.3 165.9C36.78 167.34 37.45 168.72 38.03 170.13C37.68 170.43 37.33 170.73 36.98 171.03C34.89 168.49 32.59 166.09 30.77 163.36C28.77 160.34 27.19 157.03 25.47 153.83C23.79 150.71 22.15 147.58 20.49 144.45C20.12 144.7 19.76 144.95 19.39 145.21Z" fill="white"/>
<path d="M203.48 675.66C205.52 683.1 204.32 686.11 197.49 691.64C196.52 692.43 196.27 694.07 195.56 695.23C192.81 699.73 190.09 704.26 187.05 708.56C186.83 708.87 184.11 707.42 182.55 706.79C182.73 706.4 182.91 706.01 183.09 705.62C181.87 706.2 180.66 706.77 179.44 707.35C179.88 706.05 180.01 704.51 180.81 703.49C185.57 697.37 190.59 691.46 195.28 685.3C197.78 682.02 199.79 678.39 202.03 674.91C202.52 675.16 203 675.42 203.49 675.67H203.48V675.66Z" fill="white"/>
<path d="M273.49 800.73C273.49 806.67 273.34 811.33 273.57 815.97C273.65 817.51 275.1 818.96 275.24 820.51C275.52 823.57 275.32 826.68 275.32 830.27C271.67 829.29 268.91 828.54 266.53 827.9C265.69 822.14 264.58 816.52 264.12 810.85C263.68 805.41 268.59 804.14 273.48 800.72H273.49V800.73Z" fill="white"/>
<path d="M54.37 187.48C51.53 183.49 48.32 179.7 46 175.42C44.63 172.89 42.36 169.73 46.04 166.53C46.91 165.78 46.01 162.78 45.63 160.87C44.86 156.95 46.04 154.08 50.93 151.55C52.67 163.68 54.33 175.23 55.99 186.78C55.45 187.01 54.91 187.25 54.37 187.48Z" fill="white"/>
<path d="M91.34 656.12C105.71 650.06 120.07 644.01 134.75 637.82C134.17 645.38 130.7 648.74 123.71 650.04C112.98 652.05 102.47 655.22 91.87 657.89C91.69 657.3 91.52 656.7 91.34 656.11V656.12Z" fill="white"/>
<path d="M235.14 707.67C226.43 704.51 225.65 713.53 221.46 717.3C221.04 717.01 220.61 716.73 220.19 716.44C222.12 712.15 223.86 707.76 226.05 703.61C228.26 699.43 231.5 695.73 233.23 691.4C235.25 686.35 238.99 684.92 243.95 684.02C244.44 692.8 238.09 697 232.82 702.18C233.51 703.87 234.28 705.77 235.06 707.67H235.14Z" fill="white"/>
<path d="M174.96 668.89C173.31 671.93 171.84 675.09 169.97 677.99C167.96 681.11 165.78 684.17 163.28 686.9C162.18 688.11 159.19 689.47 158.64 688.99C156.21 686.82 154.08 684.15 152.52 681.3C152.22 680.74 155.26 677.1 156.21 677.31C163.59 678.98 167.61 674.79 171.34 669.63C171.85 668.92 172.83 668.56 173.6 668.04C174.05 668.32 174.5 668.61 174.95 668.89H174.96Z" fill="white"/>
<path d="M331.83 846.14C330.79 857.21 335.67 868.13 330.47 879.19C329.13 871.84 327.73 864.51 326.47 857.15C326.14 855.2 326.65 853.03 326.03 851.21C324.21 845.8 327.23 845.76 331.82 846.15L331.83 846.14Z" fill="white"/>
<path d="M39.48 111.49C34.71 107.52 33.07 107.71 30.12 111.74C29.38 112.76 27.55 113.46 26.21 113.48C22.42 113.54 19.17 114.24 16.79 117.57C15.91 118.8 14.42 119.59 12.65 120.09C18 115.79 19.49 109.75 20.04 103.74C23.55 104.66 25.7 107.82 29.26 104.85C30.5 103.82 33.08 104.1 35 104.27C36.78 104.42 39.46 104.74 40.03 105.86C40.75 107.28 39.74 109.57 39.47 111.49H39.48Z" fill="white"/>
<path d="M253.2 704.63C255.78 701.61 257.54 699.55 259.67 697.06C264.43 700.25 269.12 703.4 273.82 706.55C273.7 707.24 273.57 707.92 273.45 708.61C269.38 709.39 265.31 710.17 261.23 710.95C261.09 710.44 260.95 709.93 260.82 709.42C261.32 708.62 261.82 707.83 262.52 706.71C259.76 706.09 257.13 705.51 253.2 704.63Z" fill="white"/>
<path d="M235.05 707.67C234.82 710.7 234.59 713.73 234.46 715.52C230.43 722.45 226.86 728.6 223.25 734.81C218.1 730.46 217.5 727.19 223.03 722.78C228.38 718.51 231.39 712.94 235.12 707.67C235.14 707.67 235.05 707.67 235.05 707.67Z" fill="white"/>
<path d="M272.87 758.56C271.48 758.07 270.45 757.71 270.15 757.6C270.38 754.6 271.65 751.32 270.53 749.76C268.44 746.86 265.16 744.24 260.26 746.58C262.23 742.28 264.2 737.98 266.01 734.04C267.8 736.09 270.07 737.88 271.22 740.22C272.56 742.94 273.32 746.11 273.6 749.15C273.86 752.06 273.18 755.05 272.87 758.56Z" fill="white"/>
<path d="M92.78 669.67C86.15 673.54 80.57 676.81 74.98 680.06C73.34 681.01 71.58 681.78 70.01 682.83C66.05 685.48 66.08 685.53 61.44 682.98C67.68 677.5 86.33 669.11 92.78 669.67Z" fill="white"/>
<path d="M275.07 913.15C273.81 918.5 273.46 924.15 270.98 928.61C269.89 930.57 264.46 930.11 261 930.76C260.97 929.68 260.46 928.21 260.97 927.58C264.99 922.73 269.2 918.03 273.4 913.33C273.63 913.08 274.3 913.22 275.06 913.15H275.07Z" fill="white"/>
<path d="M94.35 382.67C97.87 391.26 100.82 398.48 104.08 406.47C100.63 404.24 98.01 402.54 95.22 400.73C94.24 398.27 93.65 394.82 91.75 392.41C88.22 387.94 91.69 386.27 94.35 382.66V382.67Z" fill="white"/>
<path d="M264.72 903.54C266.63 897.4 268.59 891.11 270.66 884.46C272.41 887.24 274.69 889.09 273.68 893.3C272.99 896.17 275.16 899.73 276.01 902.83C272.92 903.02 268.87 903.28 264.72 903.54Z" fill="white"/>
<path d="M214.26 699.04C213.49 700.55 212.71 702.07 211.94 703.58C211.51 703.11 211.08 702.64 210.66 702.17C210.97 703.1 211.27 704.03 211.58 704.95C210.06 705.13 208.55 705.32 206.74 705.54C206.71 706.09 206.67 706.93 206.69 706.47C204.18 708.01 202.42 709.19 200.56 710.19C199.09 710.99 197.5 711.57 195.96 712.25L194.88 710.53C198.17 706.44 201.47 702.35 204.76 698.26C204.97 698.82 205.19 699.37 205.4 699.93C208.41 699.69 211.42 699.45 214.43 699.21L214.26 699.04Z" fill="white"/>
<path d="M267.51 731.74C266.23 722.57 275.42 717.54 274.77 709.09C275.29 709.16 275.81 709.22 276.32 709.29C276.32 710.9 276.48 712.53 276.29 714.12C275.81 718.07 274.79 721.99 274.68 725.95C274.55 730.59 272.42 732.17 267.5 731.75L267.51 731.74Z" fill="white"/>
<path d="M273.4 972.39C272.9 980.44 272.41 988.49 271.81 998.17C269.28 994.91 267.53 992.65 265.44 989.96C267.72 984.55 270.24 978.56 272.76 972.58C272.97 972.52 273.19 972.46 273.4 972.39Z" fill="white"/>
<path d="M328.46 1026.21C329.89 1020.06 331.21 1014.36 332.53 1008.65C332.81 1008.7 333.08 1008.76 333.36 1008.81C334.91 1014.48 336.45 1020.16 338.1 1026.2H328.46V1026.21Z" fill="white"/>
<path d="M195.3 661.71C189.61 668 184.7 673.43 178.95 679.78C179.99 668.33 186.23 661.29 195.3 661.71Z" fill="white"/>
<path d="M136.8 675.13C141.26 678.55 141.8 681.1 138.84 685.97C138.29 685.09 137.79 684.39 137.39 683.63C137.04 682.97 136.78 682.25 136.49 681.56C136.08 681.68 135.66 681.8 135.25 681.92C135.77 683.92 136.3 685.92 136.88 688.16C133.47 687.85 129.92 687.53 127.08 687.27C130.24 683.33 133.41 679.37 136.81 675.13H136.8Z" fill="white"/>
<path d="M160.38 647.62C158.26 651.82 150.52 655.97 147.02 655.13C146.1 654.91 144.96 653.54 144.85 652.59C144.74 651.63 145.65 649.77 146.36 649.63C150.81 648.78 155.34 648.3 160.37 647.62H160.38Z" fill="white"/>
<path d="M264.37 779.49C264.8 778.28 264.84 777.52 265.24 777.14C266.79 775.69 268.46 774.36 270.09 772.98C271.13 775.07 272.76 777.08 273.06 779.27C273.56 782.92 273.2 786.69 273.2 791.91C269.17 787.06 272.49 779.15 264.37 779.49Z" fill="white"/>
<path d="M247.72 731.19C245.61 735.94 243.63 740.76 241.24 745.36C240.86 746.09 238.57 745.83 237.17 746.03C237.43 744.7 237.41 743.22 238 742.05C239.59 738.87 241.33 735.74 243.24 732.74C243.93 731.66 245.27 730.99 246.31 730.13C246.78 730.48 247.26 730.84 247.73 731.19H247.72Z" fill="white"/>
<path d="M41.41 303.78C39.04 296.44 39.02 289.68 42.68 283.09C45.82 285.73 45.26 296.19 41.41 303.78Z" fill="white"/>
<path d="M213.61 709.4C215.28 717.02 210.46 723.42 204.76 721C207.85 716.95 210.73 713.17 213.61 709.4Z" fill="white"/>
<path d="M263.39 865.73C266.25 862.28 268.21 859.91 270.48 857.18C271.65 857.91 274.05 859.12 273.95 859.38C272.97 861.95 271.99 864.8 270.11 866.62C269.25 867.45 266.36 866.19 263.4 865.72H263.39V865.73Z" fill="white"/>
<path d="M88.51 355.82C86.55 348.81 84.93 343.01 83.31 337.2C87.93 339.76 90.55 349.87 88.51 355.82Z" fill="white"/>
<path d="M271.09 961.65C269.57 960.26 268.05 958.87 266.54 957.48C268.16 955.72 270.4 952.18 271.3 952.49C276.57 954.34 270.26 957.94 272.52 960.59C272.05 960.94 271.57 961.29 271.1 961.64H271.09V961.65Z" fill="white"/>
<path d="M64.21 664.12C62.66 665.23 61.18 666.44 59.55 667.42C55.75 669.72 51.89 671.9 48.54 673.85C49.5 669.11 57.05 664.13 64.3 664.22L64.21 664.12Z" fill="white"/>
<path d="M33.84 305.01C31.61 293.76 32.4 286.48 35.31 284.46C34.87 290.68 34.4 297.18 33.84 305.01Z" fill="white"/>
<path d="M172.73 694.24L180.91 684.91C181.25 685.21 181.6 685.51 181.94 685.81C179.56 689.16 177.18 692.51 174.8 695.86C174.11 695.32 173.42 694.78 172.73 694.24Z" fill="white"/>
<path d="M64.3 664.22C69.07 662.6 73.85 660.98 78.62 659.36C78.8 660.16 78.99 660.95 79.17 661.75C74.18 662.54 69.19 663.33 64.2 664.12L64.29 664.22H64.3Z" fill="white"/>
<path d="M105.95 667.28C105.49 669.84 105.39 671.38 104.9 672.77C104.61 673.6 103.82 674.5 103.02 674.86C102.28 675.19 101.23 674.86 100.32 674.81C100.42 673.79 100.15 672.44 100.7 671.82C102.08 670.27 103.84 669.06 105.95 667.29V667.28Z" fill="white"/>
<path d="M281.52 1026.68C283.71 1028.72 285.06 1029.97 286.82 1031.6C284.97 1033.03 283.53 1034.14 281.52 1035.68V1026.68Z" fill="white"/>
<path d="M14.23 97.1401C13.59 102.81 8.83 100.75 5.73 101.43C3.81 101.85 1.62 101.05 0 100.85C4.54 99.7001 9.43 98.4701 14.33 97.2401L14.23 97.1401Z" fill="white"/>
<path d="M175.4 304.33C176.49 305.77 177.25 306.77 178.01 307.77C178.31 306.62 178.61 305.47 178.9 304.37C184.01 307.24 184.3 307.15 188.36 301.35C190.17 298.77 200.48 296.65 203.51 298.55C207.95 301.33 212.27 304.32 216.47 307.45C221.51 311.2 226.44 315.1 231.25 319.14C232.72 320.37 233.62 322.28 234.79 323.88C234.44 324.23 234.09 324.57 233.74 324.92C232.46 324.77 231.15 324.77 229.92 324.44C225.16 323.19 221.83 324.96 219.89 329.27C218.63 332.06 217.99 335.12 216.68 337.88C214.56 342.35 209.89 342.81 205.85 343.8C200.63 345.07 195.28 345.87 189.95 346.6C180.17 347.94 170.38 349.12 160.57 350.28C159.5 350.41 157.81 350.31 157.32 349.64C152.75 343.37 145.68 345.79 139.74 344.4C139.18 344.27 138.48 344.59 137.88 344.82C135.47 345.73 133.1 344.82 130.79 342.12C133.99 339.2 137.85 336.66 140.39 333.16C146.59 324.63 155.22 318.81 162.6 311.62C166.52 307.8 170.37 304.73 175.39 304.34L175.4 304.33ZM151.23 337.72C153.5 336.75 155.22 335.3 156.68 335.52C164.3 336.7 171.51 339.3 179.68 338.23C188.09 337.13 196.79 338.32 205.36 338.44C210.06 338.51 212.89 335.57 214.98 331.86C215.33 331.24 214.51 329.95 214.23 328.97C213.31 329.31 212.23 329.45 211.5 330.02C209.91 331.26 208.49 332.72 207.01 334.09C206.4 333.7 205.79 333.32 205.18 332.93C205.65 331.37 205.64 329.26 206.68 328.36C208.7 326.62 211.19 324.77 213.7 324.39C217.54 323.81 217.75 321.03 217.61 318.76C217.37 314.82 215.49 311.11 211.22 310.31C205.69 309.27 200.04 308.89 194.42 308.44C192.86 308.32 191.16 308.76 189.66 309.32C175.78 314.5 164.96 324.28 153.72 333.41C152.56 334.35 152.1 336.14 151.22 337.7V337.72H151.23Z" fill="black"/>
<path d="M295.17 467.97C296.65 465.51 297.68 463.81 299.2 461.3H289.8C289.7 460.8 289.6 460.29 289.51 459.79C290.76 459.31 292.02 458.83 294.69 457.81C292.92 456.69 291.81 455.76 290.53 455.23C288.87 454.55 286.96 454.43 285.35 453.66C274.35 448.38 267.08 457.09 259 460.11C260.57 463.45 261.95 466.39 263.69 470.09C264.23 468.45 264.53 467.99 264.5 467.55C264.02 461.56 268.21 458.51 274.26 459.9C276.68 460.45 279.43 459.75 282.01 459.43C283.88 459.19 285.71 458.64 287.55 458.22C287.82 458.84 288.1 459.46 288.37 460.09C286.86 461.18 285.48 462.81 283.8 463.26C279.34 464.44 274.71 464.98 270.22 466.06C268.65 466.44 267.28 467.64 264.76 469.06C271.86 470.19 277.19 470.83 282.41 472.02C283.61 472.29 285.24 474.44 285.18 475.65C285.08 477.42 284.08 479.83 282.68 480.68C279.56 482.57 276.46 483.13 272.59 480.66C269.52 478.69 264.98 479.09 261.13 478.24C255.23 476.94 249.36 475.51 243.49 474.08C238.85 472.95 234.47 472.81 230.06 475.37C225.99 477.74 219.03 474.35 218.71 470.04C218.5 467.3 218.8 465.57 222.97 465.24C231.55 464.56 240.03 462.47 248.48 460.68C249.23 460.52 249.61 458.31 250.06 457.02C250.64 455.36 250.62 452.72 251.72 452.14C255.72 450.05 260.09 448.68 264.3 446.97C269.21 444.97 274.09 442.9 278.97 440.83C280.88 440.02 282.76 439.14 284.66 438.3C285.33 440.35 285.99 442.4 286.92 445.26C293.3 446.89 300.86 448.56 308.22 450.86C310.63 451.61 312.52 454.01 315.57 456.36C308.27 461.65 304.74 470.18 295.19 471.36C293.81 471.53 292.62 473.19 291.64 473.93C290.13 471.73 288.76 469.75 287.03 467.23C287.36 467.11 288.44 466.33 289.36 466.49C290.28 466.66 290.96 468.18 291.89 468.35C293.13 468.58 294.5 468.07 295.18 467.97H295.17ZM252.48 463.66C251.78 465.25 251.24 466.47 250.38 468.42H258.9C258.95 468.09 258.99 467.77 259.04 467.44C257.11 466.33 255.19 465.21 252.49 463.65H252.48V463.66Z" fill="black"/>
<path d="M295.9 299.64C295.11 300.19 294.02 300.56 293.57 301.32C289.1 308.75 286.3 307.07 279.42 301.94C283.74 300.09 287.79 298.81 291.38 296.72C297.93 292.9 304.16 288.56 310.6 284.55C311.96 283.71 313.61 283.33 315.14 282.79C316.85 282.19 318.64 281.78 320.28 281.05C327.32 277.9 334.13 274.53 342.32 277.88C345.49 279.17 349.79 277.78 352.87 279.17C355.72 280.46 357.76 280.07 360.41 279.5C362.13 279.13 364.13 280.08 366.17 280.47C366.39 280.14 367.01 278.27 368.24 277.68C369.22 277.21 370.95 278.32 372.34 278.72C372.39 279.21 372.45 279.7 372.5 280.2C369.59 281.7 366.69 283.19 363.75 284.71C365.09 287.92 366.11 291.21 362.86 295.34C359.69 299.36 358.38 304.79 355.78 309.34C355.17 310.41 352.68 310.42 351.06 310.91L351.18 311.03C353.5 306.45 356.46 302.06 357.92 297.22C359 293.62 358.13 289.44 358.13 285.22C354.79 285.22 351.7 285.37 348.62 285.18C345.19 284.96 341.79 284.32 338.37 284.1C337.08 284.02 335.17 284.18 334.53 285C329.73 291.11 321.99 290.88 315.74 293.73C309.49 296.57 302.51 297.79 295.85 299.71L295.91 299.62V299.64H295.9Z" fill="black"/>
<path d="M305.45 253.14C307.45 254.27 309.45 255.4 312.02 256.85C316.65 254.27 318.05 249.92 314.97 242.42C313.59 242.3 312.14 242.18 308.91 241.9C312.16 239 314.4 237 317.76 234C318.09 239.59 323.62 242.15 320.59 247.66C319.8 249.09 321.46 251.86 321.67 252.71C328.22 252.05 333.85 251.47 340.17 250.83C339.33 252.9 338.83 254.15 338.32 255.4C338.05 255.03 337.79 254.67 337.52 254.3C335.72 255.12 333.98 256.11 332.11 256.71C329.44 257.57 326.65 258.04 323.97 258.85C314.7 261.65 305.41 264.4 296.22 267.43C289.81 269.55 286.5 266.84 286.51 258.93C289.25 257.73 293.93 258.98 293.78 253.85C293.73 252.23 292.91 250.64 292.44 249.03C292.01 249.15 291.59 249.26 291.16 249.38C291.16 250.98 291.53 252.71 291 254.1C290.74 254.76 287.89 255.29 287.71 254.98C286.1 252.31 284.6 249.52 283.57 246.59C283.02 245.03 283.47 243.12 283.47 240.21C285.64 242.28 287.08 243.64 288.5 245.02C289.37 245.85 290.22 246.7 291.07 247.54C291.6 246.21 292.2 244.9 292.64 243.53C292.82 242.97 292.67 242.3 293.78 240.93C295.15 242.58 296.52 244.23 298.25 246.32C302.75 245.18 299.52 240.07 302.49 236.59C304.3 239.47 305.92 242.04 307.82 245.07C309.48 244.84 311.75 244.53 315.1 244.07C311.2 247.73 308.23 250.52 305.25 253.3C304.69 252.08 304.26 249.96 303.53 249.85C302.12 249.64 299.46 250.27 299.24 251.08C298.69 253.1 299.22 255.41 299.29 257.04C301.71 255.5 303.56 254.32 305.42 253.14H305.45Z" fill="black"/>
<path d="M277.52 550.98C278.02 551.02 278.6 550.89 279 551.11C282.96 553.31 286.44 552.52 289.45 548.74C292 550.64 293.61 550.12 295.03 547.04C295.92 545.11 297.81 542.78 299.66 542.32C304.27 541.19 306.6 537.71 309.62 534.77C311.04 533.39 313.09 532.63 314.92 531.72C321.83 528.3 326.85 522.68 331.9 516.77C333.06 522.32 332.12 523.95 326.69 528.3C322.31 531.81 318.3 535.78 313.96 539.33C311.74 541.14 308.97 542.27 306.77 544.1C302.7 547.48 298.91 551.19 294.92 554.67C292.43 556.84 288.98 558.43 290.73 563.05C290.07 562.36 289.41 561.67 289.05 561.29C285.09 564.68 280.91 568.09 276.95 571.74C275.66 572.92 275.3 575.3 273.91 576.13C271.23 577.73 268.13 578.62 265.2 579.81C264.83 579.32 264.46 578.84 264.09 578.35C265.5 576.26 266.85 574.12 268.33 572.08C270.79 568.69 269.86 565.64 265.93 564.19C262.01 562.74 263.19 560.5 265.72 558.02C261.61 556.61 257.97 555.36 254.13 554.04C256.85 551.94 260.76 552.83 265.05 554.53C268.6 555.94 272.73 555.9 276.92 556.55C277.21 554.33 277.43 552.6 277.66 550.86L277.53 550.97H277.52V550.98Z" fill="black"/>
<path d="M134.33 277.91C135.92 280.57 136.92 282.27 137.94 283.97C144.44 282.26 146.41 279.38 145.32 272.3C150.44 272.69 150.09 264.95 155.68 265.1C153.45 267.82 149.97 269.77 153.38 274.07C154.76 273.65 156.23 273.19 157.98 272.66C157.55 271.29 157.12 269.92 156.65 268.39C156.86 268.15 157.17 267.78 157.5 267.44C159.94 264.91 163.84 263.48 163.49 258.84C163.43 257.99 164.91 256.86 165.9 256.19C166.25 255.96 167.26 256.71 167.97 257.02C167.5 257.95 167.06 258.91 166.55 259.82C165.3 262.1 164.01 264.37 162.48 267.12C164.83 272.14 168.63 264.47 171.36 267.5C170.98 274.27 168.27 277.4 163.22 276.9C162.2 278.11 161.47 279.4 160.39 280.21C146.8 290.41 133.18 300.57 119.49 310.63C118.63 311.26 117.14 311.03 115.95 311.21C115.67 309 115.2 306.79 115.27 304.59C115.27 304.14 117.48 303.22 118.45 303.45C123.53 304.63 126.55 302.13 126.44 296.68C126.42 295.79 126.88 294.83 127.32 294.01C128.62 291.62 130.23 289.37 131.34 286.9C132.42 284.5 133.03 281.9 134.33 277.92V277.91Z" fill="black"/>
<path d="M90.32 175.35C86.46 172.07 82.91 169.04 78.2 165.03C81.13 165.61 83.11 166 85.89 166.55C85.74 165.41 85.83 163.53 85.42 163.42C83.42 162.85 81.28 162.76 78.1 162.36C80.48 158.62 82.88 154.85 85.22 151.17C84.59 151.35 83.31 151.71 81.48 152.22C79.71 135.16 77.94 118.1 76.16 100.92C82.03 98.72 84.33 100.01 83.96 106.45C83.49 114.44 82.42 122.39 81.62 130.36C81.59 130.69 81.44 131.15 81.59 131.32C85.98 136.07 82.97 141.72 83.51 147.37C85.4 147.46 87.3 147.56 89.77 147.68C89.23 145.72 88.84 144.28 88.34 142.47H92.67C93.07 139.8 87.17 137.94 91.48 135.56C90.18 134.26 89.23 133.32 88.28 132.37C89.45 132.17 90.63 131.96 92.37 131.66C93.45 127.6 85.11 124.36 89.55 119.61C92.42 119.85 94.93 120.06 98.01 120.31C95.32 125.31 100.15 132.29 94.66 137.87C93.7 138.85 94.2 141.35 94.17 143.15C94.11 147.25 94.15 151.34 94.15 155.38C89.71 156.36 88 165.29 90.32 175.32V175.35Z" fill="black"/>
<path d="M256.15 403.42C256.11 408.86 253.89 410.97 247.01 412.49C245.22 408.18 247.44 403 250.86 400C256.92 394.67 263.88 394.2 271.39 393.74C274.63 393.54 277.66 389.94 280.78 387.88C283.83 385.87 287.04 383.97 286.59 379.52C293.91 376.03 291.69 372.8 286.71 368.86C284.37 367.01 283.09 363.8 280.46 359.92C280.55 359.85 281.33 359.21 282.28 358.43C279.89 356.96 280.61 355.1 283.67 353.56C284.5 360.62 287.5 366.34 293.74 370.14C300.14 374.03 300.9 376.85 294.76 380.57C289.61 383.69 288.94 389.72 284.53 392.6C278.58 396.48 274.24 402.72 266.08 403.65C262.7 404.04 259.66 403.05 256.14 403.41H256.15V403.42Z" fill="black"/>
<path d="M238.16 6.62012C229.2 7.30012 220.24 7.90012 211.3 8.69012C204.13 9.32012 196.94 9.90012 189.84 11.0401C182.83 12.1701 175.95 14.1601 168.95 15.3601C166.82 15.7301 164.45 14.7301 161.89 14.3001C154.68 23.8601 150.19 25.5501 146.66 21.7501C145.42 27.6901 144.38 28.1201 136.23 25.9101C136.38 23.7301 136.54 21.5001 136.72 18.9201C139.78 16.8901 145.74 21.1701 146.66 13.6401C147.83 15.3401 148.34 16.0801 149.21 17.3301C152.05 15.1801 154.86 13.0601 158.41 10.3801C164.96 10.0901 173.31 11.1201 180.76 8.99012C188.51 6.78012 196.23 6.70012 203.95 5.63012C214.83 4.11012 225.71 1.49012 236.69 5.08012C237.22 5.25012 237.72 5.52012 238.23 5.75012L238.15 6.60012V6.62012H238.16Z" fill="black"/>
<path d="M199.78 262.72C202 262.31 203.98 261.94 206.09 261.55V253.73C208.36 254.87 209.8 255.6 210.86 256.13C211.2 259.54 211.47 262.63 211.82 265.72C212.31 270.11 206.87 274.05 202.31 272.45C200.63 271.86 199.1 270.82 197.24 269.85C196.15 270.87 194.99 271.97 193.54 273.33C191.92 272.22 190.33 271.14 189.56 270.61C184.03 272.42 179.08 274.04 173.96 275.72C172.3 265.69 172.64 264.62 179.3 261.71C180.6 261.14 182.62 261.6 184.08 262.18C185.61 262.79 187.4 265.24 188.14 264.9C190.45 263.82 193.14 262.18 194.14 260.03C195.48 257.19 195.36 253.66 195.95 249.97C200.13 253.17 198.95 257.96 199.78 262.72Z" fill="black"/>
<path d="M420.61 246.23C416.53 248.81 412.28 251.17 408.49 254.12C407.4 254.97 407.63 257.53 407.28 259.19C404.23 257.32 404.29 252.93 407.63 250.88C411.69 248.38 415.87 245.98 419.54 242.99C421.69 241.24 422.96 238.41 424.22 235.74C428.98 233.39 429.63 238.79 432.71 240.64C429.82 244.7 426.98 248.5 424.36 252.43C422.27 255.56 420.34 258.81 418.53 262.11C416.28 266.22 413.9 270.31 412.2 274.66C411.21 277.19 411.31 280.18 411.14 282.98C410.78 288.99 410.57 295.01 410.3 301.02C409.7 301 409.1 300.98 408.5 300.96C408.68 297.17 409.07 293.37 408.97 289.58C408.91 287.35 408.79 284.34 407.42 283.08C402.68 278.72 404.91 274.3 407.02 270.29C410.38 263.89 414.42 257.84 418.25 251.69C419.24 250.1 420.56 248.73 421.73 247.25L420.62 246.23H420.61Z" fill="black"/>
<path d="M276.63 336.26C268.6 334.26 269.09 328.01 268.54 323.06C267.35 312.27 262.35 302.88 258.62 293.02C257.13 289.07 258.97 286.8 261.63 285.07C269.36 287.53 269.58 294.1 270.84 300.12C272.86 309.71 275.11 319.26 276.98 328.88C277.43 331.2 276.78 333.73 276.63 336.26Z" fill="black"/>
<path d="M376.79 451.53C377.65 449.45 378.59 447.4 379.35 445.29C381.16 440.26 382.86 435.19 384.64 430.15C386.62 424.54 388.63 418.95 390.63 413.35C391.26 413.56 391.88 413.77 392.51 413.98C391.43 417.11 390.28 420.22 389.3 423.39C388.78 425.07 386.33 427.49 390.58 427.88C390.16 430.19 390.05 432.61 389.26 434.79C387.77 438.93 385.87 442.91 384.17 446.98C383.13 449.47 381.94 451.93 381.18 454.51C380.05 458.39 379.4 462.41 378.24 466.28C377.31 469.38 375.86 472.31 374.76 475.36C374.09 477.21 373.65 479.13 372.93 481.62C372.87 481.57 371.7 481.02 371.32 480.12C370.83 478.97 370.38 476.85 370.95 476.35C374.08 473.62 372.96 470.88 371.53 468.01C369.21 463.34 370.03 461.93 374.02 458.76C375.7 457.43 375.79 454.09 376.6 451.67C376.66 451.63 376.73 451.59 376.79 451.55V451.53Z" fill="black"/>
<path d="M295.84 299.73C296.28 299.53 297 299.05 297.12 299.17C301.28 303.31 309.81 302.47 310.45 310.77C310.49 311.23 313.04 311.28 313.32 311.97C314.42 314.67 319.47 313.69 318.69 317.91C319.95 318.09 321.22 318.45 322.47 318.39C323.77 318.33 325.05 317.86 326.92 317.44C323.65 324.56 320.85 324.34 305.21 317.26C305.94 318.33 306.68 319.4 307.37 320.41C303.94 320.54 304.12 320.47 302.85 316.89C301.84 314.02 300.2 311.37 299.05 308.54C297.87 305.62 296.95 302.6 295.91 299.63L295.84 299.73Z" fill="black"/>
<path d="M517.79 867.9C517.89 867.99 516.24 866.98 516.39 866.45C516.7 865.28 517.92 864.35 519.33 862.63C518.24 861.09 516.23 859.23 515.48 856.95C514.66 854.46 515.1 851.58 514.8 848.89C514.62 847.31 513.89 845.78 513.75 844.2C513.47 841.15 512.87 837.96 513.52 835.08C513.89 833.46 516.48 832.33 518.06 830.99C518.63 831.11 519.2 831.24 519.77 831.36C519.95 835.21 520.12 839.06 520.32 842.91C520.53 846.9 520.75 850.9 520.99 854.89C521.09 856.49 521.29 858.09 521.39 859.69C521.68 864.36 521.94 869.03 522.23 873.86C521.83 874.26 520.76 875.18 519.9 876.26C519.05 877.34 518.41 878.59 517.68 879.77L516.21 879.26C516.7 875.77 517.18 872.29 517.8 867.9H517.79Z" fill="black"/>
<path d="M392.31 412.46C391.91 410.87 390.92 409.16 391.2 407.7C393.08 397.74 395.21 387.83 397.31 377.91C397.58 376.63 398.32 375.44 398.57 374.15C399.38 369.85 402.57 366.02 400.26 361.02C399.46 359.3 401.15 356.43 402.58 354.24C403.44 360.24 404.83 366.04 401.88 371.88C400.48 374.65 400.33 378.09 399.76 381.25C398.7 387.05 399.46 392.96 395.83 398.57C393.64 401.95 394.49 407.29 393.97 411.75C393.42 411.98 392.88 412.21 392.33 412.44L392.31 412.46Z" fill="black"/>
<path d="M115.56 162.47C113.93 157.6 112.31 152.74 110.42 147.1C109.78 148.66 109.37 149.68 108.59 151.6C106.41 147.55 104.19 144.07 102.7 140.29C102.17 138.95 103.43 136.91 103.88 135.19C106.45 136.24 110.07 136.6 111.33 138.51C113.13 141.25 113.17 145.13 114.04 148.51C114.44 150.08 114.75 151.78 115.6 153.1C117.47 156.01 118.26 158.93 115.56 162.46V162.47Z" fill="black"/>
<path d="M415.34 366.83C416.55 357.03 417.65 348.13 418.74 339.31C421.33 339.66 423.17 339.91 425.59 340.23C423.43 348.6 421.19 357.39 418.79 366.14C418.69 366.52 417.13 366.5 415.34 366.83Z" fill="black"/>
<path d="M277.65 550.87C273.76 552.9 270.68 552.02 267.63 548.86C265.3 546.44 262.43 544.41 259.49 542.76C255.19 540.34 250.61 538.41 244.51 535.48C247.14 534.45 249.07 532.94 250.21 533.4C253.14 534.57 255.74 536.57 258.42 538.31C261.05 540.01 263.61 541.81 266.56 543.17C270.2 545.79 273.85 548.4 277.5 551.01C277.51 551 277.64 550.89 277.64 550.89V550.87H277.65Z" fill="black"/>
<path d="M357.54 88.1198C357.76 83.9898 358.67 80.0998 361.21 76.4698C364.27 72.0898 367.04 67.5198 369.84 63.1898C369.75 62.9998 370.22 63.9998 370.8 65.2098C371.65 65.0198 372.6 64.5998 373.52 64.6498C374.43 64.6898 375.86 64.9798 376.1 65.5598C376.49 66.4898 376.53 68.1698 375.93 68.7998C372.72 72.1998 369.63 75.9298 365.77 78.4298C363.52 79.8798 362.74 81.1098 362.22 83.4798C361.8 85.3998 360.33 87.0798 359.33 88.8698C358.73 88.6198 358.14 88.3698 357.54 88.1198Z" fill="black"/>
<path d="M351.06 310.91C352.14 317.76 350.09 320.3 344.51 321.1C343.25 318.66 341.98 316.19 340.07 312.5C338.16 318.18 336.1 320.73 332.54 315.61C343.17 308.76 343.7 308.68 347.93 313.56C349 312.73 350.1 311.89 351.19 311.04L351.07 310.91H351.06Z" fill="black"/>
<path d="M281.42 334.4C282.04 336.1 283.21 337.81 283.19 339.5C283.14 343.92 282.57 348.33 282.21 352.75C276.74 352.14 273.66 343.98 276.81 336.63C277.46 338.06 277.9 339.03 278.3 339.91C280.51 338.42 276.82 334.14 281.54 334.54L281.42 334.4Z" fill="black"/>
<path d="M124.28 131.17C123.62 130.59 122.48 130.09 122.37 129.42C121.68 125.18 121.22 120.9 120.68 116.64C121.08 116.55 121.49 116.46 121.89 116.37C122.82 118.89 123.75 121.42 124.68 123.94C125.02 123.94 125.37 123.91 125.71 123.9C127.08 118.5 128.45 113.09 129.75 107.92C133.58 113.77 131.25 124.06 124.25 131.18H124.28V131.17Z" fill="black"/>
<path d="M255.13 14.4298C254.6 13.9698 253.36 12.8998 252.49 12.1498C250.68 13.1898 249.07 14.1198 247.71 14.9098C247.1 11.6698 246.68 9.42981 246.08 6.20981C250.31 4.40981 255.24 6.55981 259.91 6.30981C258.11 9.34981 256.59 11.9398 255.11 14.4398H255.13V14.4298Z" fill="black"/>
<path d="M124.27 131.18C129.41 133.17 129.68 134.28 126.8 138.5C125.6 140.26 125.23 142.57 124.24 144.51C123.41 146.13 122.23 147.57 121.21 149.09C120.63 148.76 120.05 148.42 119.47 148.09C121.08 142.45 122.69 136.82 124.3 131.18H124.28H124.27Z" fill="black"/>
<path d="M327.44 83.4399C326.23 81.5299 325.2 79.9099 324.17 78.2899C324.33 77.9199 324.49 77.5599 324.65 77.1899C325.9 77.5599 327.59 77.5399 328.3 78.3699C329.8 80.1199 330.79 82.3099 332.31 84.8599C331.76 85.6299 330.85 87.5299 329.38 88.7599C328.25 89.6999 326.42 89.7999 324.9 90.2699C325.23 88.5899 325.47 86.8799 325.93 85.2299C326.09 84.6499 326.76 84.2199 327.44 83.4399Z" fill="black"/>
<path d="M343.01 58.29C346.14 63.72 339.64 77.5 334.06 79.06C335.78 74.7 336.41 68.79 339.7 66.01C342.69 63.47 343.05 61.48 343.01 58.29Z" fill="black"/>
<path d="M110.95 116.59C111.47 113.02 111.83 110.57 112.18 108.13C112.84 108.23 113.51 108.33 114.17 108.43C113.48 112.7 112.79 116.97 111.86 122.67C109.24 119.63 107.26 117.58 105.66 115.28C105.33 114.8 106.38 113.37 106.79 112.37C107.54 112.97 108.32 113.52 109.01 114.18C109.53 114.68 109.93 115.32 110.94 116.59H110.95Z" fill="black"/>
<path d="M260.21 575.95C252.91 575.91 245.53 576.98 238.38 574.75C238.41 574.19 238.44 573.62 238.48 573.06C245.81 573.48 253.13 573.91 260.46 574.33C260.38 574.87 260.3 575.41 260.22 575.95H260.21Z" fill="black"/>
<path d="M361.37 50.0398C357.09 53.1798 352.45 53.8598 347.39 51.7598C347.3 51.2498 347.21 50.7398 347.13 50.2198C351.75 49.5098 356.36 48.7998 360.98 48.0898L361.38 50.0398H361.37Z" fill="black"/>
<path d="M338.89 64.23C337.39 59.55 336.21 55.85 334.58 50.75C336.8 51.76 338.83 52.09 339.04 52.89C339.89 56.18 343.73 59.4 338.89 64.23Z" fill="black"/>
<path d="M119.01 34.2099C122.3 28.6999 128.68 25.7899 132.71 28.5699C128.55 30.2899 124.38 31.9999 119.01 34.2099Z" fill="black"/>
<path d="M367.32 45.9202C369.9 46.7002 371.27 47.1202 372.65 47.5402C372.65 47.8902 372.64 48.2402 372.63 48.5802C370.24 48.4602 367.86 48.3402 364 48.1502C367.24 43.9502 369.75 40.6902 372.26 37.4302C372.85 37.7402 373.45 38.0502 374.04 38.3602C373.46 39.5602 373.11 40.9602 372.26 41.9002C371.08 43.2002 369.53 44.1602 367.32 45.9102V45.9202Z" fill="black"/>
<path d="M351.76 251.72C348.15 252.97 344.54 254.22 340.29 255.69C343.13 248.93 345.76 247.8 351.38 250.2C351.51 250.71 351.64 251.21 351.77 251.72H351.76Z" fill="black"/>
<path d="M350.76 297.72C349.6 301.11 348.51 304.54 347.21 307.88C347.02 308.37 345.78 308.81 345.15 308.67C344.51 308.53 343.46 307.39 343.58 307.14C345.15 303.66 346.9 300.26 348.6 296.83C349.32 297.13 350.04 297.43 350.76 297.72Z" fill="black"/>
<path d="M403.05 344.35C403.99 339.17 401.53 333.34 406.91 328.7C406.25 334.26 405.64 339.47 405.03 344.67C404.37 344.56 403.71 344.45 403.05 344.35Z" fill="black"/>
<path d="M191 122.55C191.58 132.35 190.85 134.29 187.01 133.23C187.88 129.5 188.74 125.83 189.6 122.15C190.07 122.29 190.54 122.42 191 122.56V122.55Z" fill="black"/>
<path d="M343.96 732.32C344.23 729.88 344.43 728.09 344.69 725.69C347.67 727.27 349.95 728.48 352.22 729.68L352.13 730.82C349.72 731.26 347.32 731.7 343.96 732.32Z" fill="black"/>
<path d="M98.29 34.75C95.59 34.9 92.89 35.19 90.19 35.13C89.33 35.11 88.5 34.13 87.66 33.59C88.57 32.82 89.57 31.31 90.36 31.41C93.05 31.77 95.66 32.69 98.3 33.4V34.75H98.29Z" fill="black"/>
<path d="M189.13 255.87C186.94 257.72 185.82 258.66 183.87 260.3C183.51 257.03 183.22 254.34 182.93 251.65C183.45 251.36 183.98 251.07 184.5 250.78C186 252.42 187.49 254.06 189.13 255.87Z" fill="black"/>
<path d="M57.02 34.7901C53.08 34.4501 50.22 34.2001 46.79 33.9001C51.19 29.2301 53.49 29.3201 57.02 34.7901Z" fill="black"/>
<path d="M106.7 133.17C106.46 128.9 106.3 126.13 106.14 123.35C106.7 123.21 107.26 123.07 107.83 122.93C108.71 125.45 109.74 127.94 110.33 130.53C110.43 130.96 108.6 131.83 106.7 133.17Z" fill="black"/>
<path d="M281.53 334.53C280.71 331.9 276.58 329.1 282.44 326.91C280.8 326.2 279.61 325.69 278.43 325.19C278.55 324.78 278.66 324.36 278.78 323.95C280.05 324.35 282.28 324.52 282.43 325.18C283.16 328.28 284.99 331.72 281.4 334.4L281.53 334.54V334.53Z" fill="black"/>
<path d="M61.96 123.46C63.09 119.78 63.95 116.95 65.02 113.46C69.02 116.4 61.57 120.86 68.84 122.21C68.27 122.55 67.7 122.88 67.13 123.22C65.5 123.29 63.86 123.37 61.95 123.46H61.96Z" fill="black"/>
<path d="M365.85 254.03C361.26 253.46 358.61 253.13 355.31 252.72C355.49 251.7 355.77 250.07 356.03 248.63C358 249.31 359.73 249.69 361.25 250.48C362.61 251.19 363.73 252.36 365.86 254.03H365.85Z" fill="black"/>
<path d="M522 901.26V911.01C519.81 908.67 518.37 907.12 516.83 905.49C518.58 904.06 519.8 903.06 522 901.27V901.26Z" fill="black"/>
<path d="M305.38 137.2C304.98 133.57 304.75 131.44 304.52 129.31C304.9 129.11 305.28 128.91 305.66 128.71C307.17 130.11 308.69 131.5 310.2 132.9C308.9 134.06 307.6 135.21 305.38 137.19V137.2Z" fill="black"/>
<path d="M345.34 707.69C344.74 705.16 344.11 702.63 343.63 700.08C343.6 699.94 344.88 699.56 345.55 699.29C346.26 701.89 346.96 704.5 347.67 707.1C346.89 707.3 346.12 707.49 345.34 707.69Z" fill="black"/>
<path d="M423.14 337.56V330.48C424.15 330.53 426.03 330.51 426.04 330.64C426.22 332.95 426.17 335.27 426.17 337.6C425.16 337.59 424.15 337.57 423.14 337.56Z" fill="black"/>
<path d="M165.78 110.3C169.7 111.15 170.52 112.93 167.86 114.8C166.7 115.61 165.44 116.27 163.07 116.67C163.93 114.65 164.79 112.63 165.79 110.3H165.78Z" fill="black"/>
<path d="M138.42 129.61C139.45 126.9 140.23 124.86 141 122.83C141.7 123.37 142.92 123.85 143.01 124.48C143.34 126.8 144.12 129.66 138.42 129.61Z" fill="black"/>
<path d="M434.64 229.83C431.88 232.48 429.33 233.36 427 232.46C429.77 232.36 429.71 224.78 434.5 229.97L434.64 229.83Z" fill="black"/>
<path d="M88.03 59.14C83.13 59.15 82.88 56.77 83.54 54.12C83.72 53.38 84.96 52.89 85.71 52.29C86.43 54.4 87.14 56.52 88.03 59.14Z" fill="black"/>
<path d="M52.19 96.9199C49.12 96.1899 47.25 95.7399 45.38 95.2899C46.26 93.6899 47.13 92.0899 48.62 89.3799C49.97 92.2199 50.78 93.9399 52.19 96.9199Z" fill="black"/>
<path d="M455.01 181.52C455.38 182.99 456.21 184.54 455.98 185.9C455.76 187.2 454.43 188.31 453.58 189.51L452.2 188.82C452.51 186.5 452.81 184.17 453.12 181.85C453.75 181.74 454.38 181.63 455 181.52H455.01Z" fill="black"/>
<path d="M107.08 691.19C108.69 690.45 110.59 689.57 113.32 688.3C111.46 696.3 102.73 704.39 97.42 704.25C97.7 702.65 97.97 701.04 98.25 699.43C96.52 699.26 94.79 699.08 92.89 698.89V693.21C94.82 694.05 96.81 695.29 98.94 695.63C99.7 695.75 100.94 693.77 101.72 692.58C102.39 691.56 102.71 690.31 103.19 689.16C104.56 689.88 105.93 690.59 107.07 691.19H107.08Z" fill="black"/>
<path d="M80.1 711.74H85.68C87 716.7 85.73 717.87 78.2 718.39C78.81 719.73 79.34 720.92 80.11 722.62C78.61 722.46 77.4 722.37 76.2 722.2C75.05 722.04 73.91 721.8 72.13 721.48C73.49 718.57 74.8 715.78 76.17 712.85H71.07C74.29 710.72 71.76 703.77 78.15 705.76C79.45 706.16 80.08 708.7 81.03 710.25C80.72 710.75 80.41 711.25 80.11 711.75H80.1V711.74Z" fill="black"/>
<path d="M25.73 1007.23C24.07 1005.21 23.28 1004.24 22.06 1002.76C26.91 1002.59 24.78 999.57 24.27 996.97C25.81 997.07 26.89 997.15 28.01 997.22C27.3 1000.35 26.64 1003.23 25.73 1007.23Z" fill="black"/>
<path d="M151.23 337.72C152.11 336.16 152.57 334.36 153.73 333.43C164.97 324.31 175.79 314.52 189.67 309.34C191.17 308.78 192.87 308.33 194.43 308.46C200.05 308.9 205.71 309.29 211.23 310.33C215.5 311.13 217.38 314.84 217.62 318.78C217.76 321.05 217.55 323.83 213.71 324.41C211.2 324.79 208.71 326.63 206.69 328.38C205.65 329.28 205.65 331.39 205.19 332.95C205.8 333.34 206.41 333.72 207.02 334.11C208.51 332.74 209.92 331.28 211.51 330.04C212.25 329.47 213.32 329.32 214.24 328.99C214.52 329.97 215.34 331.26 214.99 331.88C212.89 335.59 210.07 338.53 205.37 338.46C196.8 338.33 188.1 337.15 179.69 338.25C171.51 339.32 164.31 336.72 156.69 335.54C155.23 335.31 153.52 336.77 151.24 337.74V337.72H151.23Z" fill="white"/>
<path d="M252.48 463.66C255.18 465.22 257.11 466.33 259.03 467.45C258.98 467.78 258.94 468.1 258.89 468.43H250.37C251.23 466.48 251.77 465.26 252.47 463.67H252.48V463.66Z" fill="white"/>
<path d="M305.45 253.14C303.6 254.32 301.75 255.5 299.32 257.04C299.25 255.41 298.72 253.1 299.27 251.08C299.49 250.28 302.15 249.64 303.56 249.85C304.29 249.96 304.71 252.09 305.28 253.3L305.45 253.13V253.14Z" fill="white"/>
</g>
<defs>
<clipPath id="clip0_2301_376">
<rect width="629.43" height="1073.18" fill="white"/>
</clipPath>
</defs>
</svg>
